<?xml version="1.0" encoding="utf-8"?>
<!-- Generator: Adobe Illustrator 19.0.0, SVG Export Plug-In . SVG Version: 6.00 Build 0)  -->
<svg version="1.1" xmlns="http://www.w3.org/2000/svg" xmlns:xlink="http://www.w3.org/1999/xlink" x="0px" y="0px"
	 viewBox="0 0 500 500" style="enable-background:new 0 0 500 500;" xml:space="preserve">
<style type="text/css">
	.st0{fill:#E0E0E0;}
	.st1{fill:#FAFAFA;}
	.st2{fill:#EBEBEB;}
	.st3{fill:#F5F5F5;}
	.st4{fill:#FFFFFF;}
	.st5{fill:none;stroke:#FBFBFB;stroke-width:0.25;stroke-miterlimit:10;}
	.st6{display:none;}
	.st7{display:inline;fill:#EBEBEB;}
	.st8{fill:#263238;}
	.st9{fill:#5BEF97;}
	.st10{opacity:0.24;}
	.st11{opacity:0.3;}
	.st12{fill:#455A64;}
	.st13{fill:#FFBE9D;}
	.st14{fill:#EB996E;}
</style>
<g id="Background_Complete">
	<g id="XMLID_1_">
		<g id="XMLID_2_">
			<g id="XMLID_3_">
				<g id="XMLID_4_">
					<g id="XMLID_5_">
						<g id="XMLID_6_">
							<rect x="96.4" y="405.5" class="st0" width="56.3" height="7.5"/>
						</g>
					</g>
				</g>
			</g>
			<g id="XMLID_7_">
				<g id="XMLID_8_">
					<g id="XMLID_9_">
						<g id="XMLID_10_">
							<g id="XMLID_11_">
								<ellipse id="XMLID_12_" class="st1" cx="104.1" cy="409.3" rx="0.4" ry="3.5"/>
							</g>
						</g>
					</g>
				</g>
			</g>
			<g id="XMLID_13_">
				<g id="XMLID_14_">
					<g id="XMLID_15_">
						<g id="XMLID_16_">
							<g id="XMLID_17_">
								<ellipse id="XMLID_18_" class="st1" cx="102.8" cy="409.2" rx="0.4" ry="3.5"/>
							</g>
						</g>
					</g>
				</g>
			</g>
			<g id="XMLID_19_">
				<g id="XMLID_20_">
					<g id="XMLID_21_">
						<g id="XMLID_22_">
							<g id="XMLID_23_">
								<ellipse id="XMLID_24_" class="st1" cx="148.3" cy="409.3" rx="0.4" ry="3.5"/>
							</g>
						</g>
					</g>
				</g>
			</g>
			<g id="XMLID_25_">
				<g id="XMLID_26_">
					<g id="XMLID_27_">
						<g id="XMLID_28_">
							<g id="XMLID_29_">
								<ellipse id="XMLID_30_" class="st1" cx="147.1" cy="409.2" rx="0.4" ry="3.5"/>
							</g>
						</g>
					</g>
				</g>
			</g>
			<g id="XMLID_31_">
				<g id="XMLID_32_">
					<g id="XMLID_33_">
						<g id="XMLID_34_">
							<g id="XMLID_35_">
								<ellipse id="XMLID_36_" class="st1" cx="125.4" cy="409.5" rx="14.4" ry="0.4"/>
							</g>
						</g>
					</g>
				</g>
			</g>
		</g>
		<g id="XMLID_37_">
			<g id="XMLID_38_">
				<g id="XMLID_39_">
					<g id="XMLID_40_">
						<g id="XMLID_41_">
							<rect x="96.1" y="439.4" class="st0" width="56.3" height="15"/>
						</g>
					</g>
				</g>
			</g>
			<g id="XMLID_42_">
				<g id="XMLID_43_">
					<g id="XMLID_44_">
						<g id="XMLID_45_">
							<g id="XMLID_46_">
								<path id="XMLID_47_" class="st1" d="M153.2,450.2c0,0-0.1,0.1-0.3,0.2c-0.2,0.1-0.5,0.3-0.9,0.4c-0.8,0.3-2.1,0.8-3.8,1.1
									c-1.7,0.2-4,0.3-6.2-0.9c-1.1-0.6-2.1-1.5-2.9-2.7c-0.8-1.2-1.3-2.7-1-4.3c0.1-0.8,0.5-1.6,1-2.2c0.6-0.7,1.4-1.1,2.4-1.1
									c0.9,0,1.8,0.6,2.4,1.3c0.6,0.7,1,1.6,1.1,2.6c0.2,1.9-0.6,3.9-1.9,5.3c-1.3,1.5-3.3,2.4-5.4,2.6c-2.1,0.2-4.2-0.1-6.3-0.8
									c-2-0.7-4.1-1.9-5.5-3.7c-0.7-0.9-1.2-2-1.3-3.2c-0.1-1.2,0.3-2.5,1.2-3.4c0.5-0.4,1.1-0.7,1.8-0.8c0.7,0,1.3,0.2,1.8,0.5
									c1.1,0.7,1.8,1.8,2.1,3c0.5,2.5-0.4,5-2.2,6.6c-1.8,1.6-4.1,2.3-6.3,2.6c-2.2,0.2-4.5,0.1-6.6-0.6c-2.1-0.7-3.9-2-5-3.9
									c-1.1-1.8-1.4-4.1-0.6-6c0.4-0.9,1.3-1.8,2.3-1.9c1-0.2,2.1,0.1,2.8,0.7c1.6,1.3,1.9,3.4,1.3,5.1c-0.5,1.7-1.7,3-2.8,4
									c-2.4,2-5.3,2.9-7.7,3c-2.5,0.1-4.6-0.6-6.1-1.4c-1.5-0.8-2.6-1.7-3.2-2.4c-0.3-0.3-0.5-0.6-0.7-0.8
									c-0.1-0.2-0.2-0.3-0.2-0.3c0.1-0.1,1.1,1.6,4.2,3.2c1.5,0.7,3.6,1.4,6,1.2c2.4-0.1,5.1-1,7.4-3c1.1-1,2.2-2.2,2.6-3.8
									c0.5-1.5,0.2-3.4-1.2-4.4c-0.7-0.5-1.5-0.7-2.4-0.6c-0.8,0.1-1.5,0.8-1.8,1.6c-0.7,1.7-0.4,3.7,0.6,5.4
									c1,1.7,2.7,2.9,4.7,3.6c2,0.7,4.1,0.8,6.3,0.6c2.1-0.2,4.3-0.9,5.9-2.4c1.6-1.4,2.5-3.8,2-5.9c-0.3-1.1-0.9-2-1.8-2.6
									c-0.9-0.6-2-0.6-2.7,0.2c-0.7,0.7-1.1,1.8-1,2.8c0.1,1,0.5,2,1.1,2.9c1.3,1.7,3.2,2.8,5.2,3.5c2,0.7,4,1,6,0.8
									c2-0.2,3.8-1,5-2.4c1.3-1.3,2-3.1,1.8-4.8c-0.1-1.7-1.4-3.3-2.9-3.4c-0.8,0-1.5,0.3-2,0.9c-0.5,0.6-0.8,1.3-0.9,2
									c-0.2,1.5,0.2,2.9,0.9,4c0.7,1.1,1.7,2,2.8,2.6c2.1,1.2,4.3,1.2,6,1c1.7-0.2,3-0.7,3.8-1
									C152.7,450.3,153.2,450.1,153.2,450.2z"/>
							</g>
						</g>
					</g>
				</g>
			</g>
		</g>
		<g id="XMLID_48_">
			<g id="XMLID_49_">
				<g id="XMLID_50_">
					<g id="XMLID_51_">
						<g id="XMLID_52_">
							<rect x="101.2" y="413.2" class="st2" width="51.3" height="26.1"/>
						</g>
					</g>
				</g>
			</g>
			<g id="XMLID_53_">
				<g id="XMLID_54_">
					<g id="XMLID_55_">
						<g id="XMLID_56_">
							<g id="XMLID_57_">
								<ellipse id="XMLID_58_" class="st0" cx="109.7" cy="426.8" rx="0.4" ry="12.6"/>
							</g>
						</g>
					</g>
				</g>
			</g>
			<g id="XMLID_59_">
				<g id="XMLID_60_">
					<g id="XMLID_61_">
						<g id="XMLID_62_">
							<g id="XMLID_63_">
								<ellipse id="XMLID_64_" class="st0" cx="113.6" cy="426.3" rx="0.4" ry="12.5"/>
							</g>
						</g>
					</g>
				</g>
			</g>
			<g id="XMLID_65_">
				<g id="XMLID_66_">
					<g id="XMLID_67_">
						<g id="XMLID_68_">
							<g id="XMLID_69_">
								<ellipse id="XMLID_70_" class="st0" cx="146.6" cy="426.1" rx="0.4" ry="13.1"/>
							</g>
						</g>
					</g>
				</g>
			</g>
			<g id="XMLID_71_">
				<g id="XMLID_72_">
					<g id="XMLID_73_">
						<g id="XMLID_74_">
							<g id="XMLID_75_">
								<ellipse id="XMLID_76_" class="st0" cx="142.1" cy="426.1" rx="0.4" ry="12.8"/>
							</g>
						</g>
					</g>
				</g>
			</g>
		</g>
	</g>
	<g id="XMLID_77_">
		<g id="XMLID_78_">
			<g id="XMLID_79_">
				<g id="XMLID_80_">
					<g id="XMLID_81_">
						<path class="st2" d="M418.1,356.3c5.3-2.7,11.6-3.1,17.5-2.1c3.2,0.5,6.5,1.5,8.6,3.9c2.2,2.4,2.6,6.6,0.1,8.6
							c-1.5,1.2-3.5,1.4-5.4,1.4c-4.6-0.1-9.7-0.9-13.4,1.9c-2.1,1.6-3.5,4.2-6,5c-2.5,0.8-5.2-0.7-6.5-2.9c-1.3-2.2-1.3-5-0.7-7.5
							C412.1,364.5,412.7,359,418.1,356.3z"/>
					</g>
				</g>
			</g>
			<g id="XMLID_82_">
				<g id="XMLID_83_">
					<g id="XMLID_84_">
						<path class="st2" d="M405.9,332.7c3.3,4.6,9.6,3.1,12.5,0.3c2.9-2.8,4.2-6.9,5.3-10.9c2.6-8.9,5.2-18.3,3.3-27.4
							c-0.6-2.7-1.6-5.4-3.5-7.5c-1.9-2-4.9-3.2-7.5-2.5c-3.2,0.8-5.2,4-6.6,6.9c-4.2,8.7-6.4,18.4-6.5,28.1
							C402.8,324.3,403.3,329,405.9,332.7"/>
					</g>
				</g>
			</g>
			<g id="XMLID_85_">
				<g id="XMLID_86_">
					<g id="XMLID_87_">
						<path class="st2" d="M397,339.4c3.5-4.2,4.2-10.3,2.6-15.5c-1.6-5.2-5.1-9.7-9.2-13.4c-4.8-4.3-10.4-7.6-16.5-9.7
							c-2.4-0.8-4.9-1.5-7.4-1.3c-2.5,0.2-5,1.5-6.2,3.8c-1.7,3.3-0.1,7.3,1.7,10.6c3.2,5.8,6.8,11.3,10.8,16.5
							c3.2,4.2,7,8.3,11.9,10.2c4.9,1.9,10.1,1.7,12.7-1.8"/>
					</g>
				</g>
			</g>
			<g id="XMLID_88_">
				<g id="XMLID_89_">
					<g id="XMLID_90_">
						<g id="XMLID_91_">
							<path class="st0" d="M405.7,402.8c0.1,0,0.2-0.7,0.3-2.1c0.1-1.5,0.3-3.5,0.6-5.8c0.3-2.4,0.6-5.3,1.3-8.4
								c0.7-3.1,1.7-6.5,3.1-10c1.4-3.4,3.1-6.5,5.1-9c2-2.5,4.3-4.3,6.4-5.3c2.2-1.1,4.1-1.5,5.4-1.7c1.3-0.1,2.1-0.2,2.1-0.3
								c0-0.1-0.8-0.1-2.1,0c-1.4,0.1-3.4,0.4-5.6,1.5c-2.3,1-4.7,2.8-6.8,5.4c-2.1,2.5-3.9,5.7-5.3,9.2c-1.4,3.5-2.4,6.9-3,10.1
								c-0.6,3.2-0.9,6.1-1.1,8.6c-0.2,2.4-0.3,4.4-0.3,5.8C405.6,402,405.6,402.8,405.7,402.8z"/>
						</g>
					</g>
				</g>
			</g>
			<g id="XMLID_92_">
				<g id="XMLID_93_">
					<g id="XMLID_94_">
						<g id="XMLID_95_">
							<path class="st0" d="M406.1,398.3c0,0,0-0.3,0.1-1c0-0.7,0-1.7,0-2.8c0-2.4,0-5.9,0.1-10.3c0.2-8.7,1-18,2.4-31.2
								c1.4-12.4,3.2-26.8,5.1-36.2c0.4-2.1,0.8-4,1.2-5.7c0.4-1.7,0.7-3.1,1-4.3c0.3-1.1,0.5-2,0.7-2.7c0.1-0.6,0.2-1,0.2-1
								c0,0-0.1,0.3-0.3,0.9c-0.2,0.7-0.5,1.6-0.8,2.7c-0.4,1.2-0.7,2.6-1.2,4.3c-0.4,1.7-0.9,3.6-1.4,5.7
								c-1.9,8.5-3.9,20.4-5.4,33.6c-1.4,13.2-2.1,25.2-2.2,33.9c-0.1,4.4,0,7.9,0.2,10.3c0.1,1.1,0.1,2.1,0.2,2.8
								C406,398,406,398.3,406.1,398.3z"/>
						</g>
					</g>
				</g>
			</g>
			<g id="XMLID_96_">
				<g id="XMLID_97_">
					<g id="XMLID_98_">
						<g id="XMLID_99_">
							<path class="st0" d="M406.1,375.2c0.1,0,0.1-1,0-2.9c-0.1-1.9-0.4-4.6-0.9-7.9c-0.6-3.3-1.3-7.3-2.6-11.5
								c-0.5-2-1.8-6.6-4.8-13.7c-4-9.5-9.4-17.3-14.2-22.1c-1.1-1.3-2.3-2.2-3.3-3.1c-0.5-0.4-1-0.9-1.4-1.2
								c-0.5-0.3-0.9-0.6-1.3-0.9c-1.6-1.1-2.4-1.6-2.5-1.6c-0.1,0.2,3.5,2.3,8.1,7.2c4.6,4.9,9.8,12.6,13.8,22
								c2.2,5.1,3.8,9.7,4.9,13.5c1.3,4.2,2.1,8.1,2.7,11.4c0.6,3.3,1,6,1.2,7.8C405.9,374.1,406.1,375.2,406.1,375.2z"/>
						</g>
					</g>
				</g>
			</g>
		</g>
		<g id="XMLID_100_">
			<g id="XMLID_101_">
				<g id="XMLID_102_">
					<polygon id="XMLID_103_" class="st2" points="382.2,412.5 384.5,444.4 425.4,444.4 427.7,412.5 					"/>
				</g>
			</g>
		</g>
		<g id="XMLID_104_">
			<g id="XMLID_105_">
				<g id="XMLID_106_">
					<rect id="XMLID_107_" x="378.2" y="400" class="st2" width="54.4" height="12.5"/>
				</g>
			</g>
		</g>
		<g id="XMLID_108_">
			<g id="XMLID_109_">
				<g id="XMLID_110_">
					<polygon id="XMLID_111_" class="st0" points="378.2,443.1 378.2,446.6 380.8,446.6 431.7,446.6 431.7,443.1 					"/>
				</g>
			</g>
		</g>
		<g id="XMLID_112_">
			<g id="XMLID_113_">
				<g id="XMLID_114_">
					<polygon id="XMLID_115_" class="st0" points="383.3,452.3 380.8,446.2 429.7,446.2 426.8,452.3 					"/>
				</g>
			</g>
		</g>
		<g id="XMLID_116_">
			<g id="XMLID_117_">
				<g id="XMLID_118_">
					<g id="XMLID_119_">
						<path id="XMLID_120_" class="st3" d="M426.9,422.9c0,0-0.1,0.1-0.2,0.3c-0.2,0.2-0.4,0.5-0.6,0.8c-0.6,0.7-1.4,1.8-2.4,3
							l-0.1,0.1l-0.1-0.1c-1.5-2.1-3.5-4.8-5.9-8.1h0.3c-1.7,2.5-3.7,5.2-5.8,8.2l-0.2,0.3l-0.2-0.2c-2.1-2.5-4.4-5.3-6.8-8.1l0.4,0
							c-0.1,0.1-0.2,0.3-0.4,0.5c-2.1,2.7-4.2,5.2-6.1,7.7l-0.2,0.3l-0.2-0.3c-2.1-2.9-4-5.7-5.8-8.2l0.3,0c-2.8,3.2-5.2,6-7.1,8.1
							l-0.1,0.1l-0.1-0.2c-0.9-1.6-1.7-2.8-2.2-3.7c-0.2-0.4-0.4-0.7-0.6-1c-0.1-0.2-0.2-0.3-0.2-0.4c0,0,0.1,0.1,0.2,0.3
							c0.2,0.3,0.4,0.6,0.6,1c0.6,0.9,1.4,2.1,2.3,3.7l-0.2,0c1.8-2.1,4.2-4.9,7-8.2l0.2-0.2l0.2,0.2c1.8,2.5,3.7,5.2,5.8,8.1
							l-0.4,0c1.9-2.4,4-5,6.1-7.7c0.1-0.2,0.3-0.3,0.4-0.5l0.2-0.2l0.2,0.2c2.4,2.9,4.7,5.6,6.8,8.1l-0.4,0
							c2.1-2.9,4.1-5.7,5.8-8.1l0.2-0.2l0.2,0.2c2.3,3.3,4.3,6.1,5.7,8.2l-0.2,0c1-1.3,1.9-2.2,2.5-3c0.3-0.3,0.5-0.6,0.7-0.8
							C426.8,423,426.9,422.9,426.9,422.9z"/>
					</g>
				</g>
			</g>
		</g>
		<g id="XMLID_121_">
			<g id="XMLID_122_">
				<g id="XMLID_123_">
					<g id="XMLID_124_">
						<ellipse id="XMLID_125_" class="st3" cx="405.4" cy="412.3" rx="22.9" ry="0.3"/>
					</g>
				</g>
			</g>
		</g>
	</g>
	<g id="XMLID_126_">
		<g id="XMLID_127_">
			<g id="XMLID_128_">
				<path id="XMLID_129_" class="st0" d="M195.2,80.8c0,0-0.1,0-0.2-0.1c-0.2-0.1-0.4-0.2-0.7-0.3c-0.6-0.3-1.5-0.6-2.5-1.1
					c-2.2-1-5.4-2.3-9.2-4c-7.8-3.4-18.6-8.1-30.4-13.2c-0.4-0.2-0.7-0.3-1.1-0.5l0.2,0c-11.7,5-22.2,9.5-29.8,12.7
					c-3.8,1.6-6.8,2.9-9,3.8c-1,0.4-1.9,0.8-2.5,1c-0.6,0.2-0.9,0.3-0.9,0.3c0,0,0.3-0.2,0.8-0.4c0.6-0.3,1.4-0.6,2.4-1.1
					c2.2-1,5.2-2.3,8.9-3.9c7.6-3.3,18.1-7.8,29.7-12.9l0.1,0l0.1,0c0.3,0.1,0.7,0.3,1.1,0.5c11.8,5.2,22.5,9.9,30.3,13.4
					c3.8,1.7,7,3.1,9.2,4.1c1,0.5,1.9,0.9,2.5,1.1c0.3,0.1,0.5,0.2,0.6,0.3C195.1,80.8,195.2,80.8,195.2,80.8z"/>
			</g>
		</g>
		<g id="XMLID_130_">
			<rect x="47.3" y="76.5" class="st0" width="195.3" height="146.2"/>
		</g>
		<g id="XMLID_131_">
			<rect x="54.2" y="83.3" class="st1" width="182.4" height="133.4"/>
		</g>
		<g id="XMLID_132_">
			<g id="XMLID_133_">
				<path id="XMLID_134_" class="st0" d="M94.5,141.6c0,0,0.2,22.4,1.3,29.2l28.1-1.3c0,0-2.5-22-1.5-27.9H94.5z"/>
			</g>
			<g id="XMLID_135_">
				<g id="XMLID_136_">
					<g id="XMLID_137_">
						<g id="XMLID_138_">
							<path id="XMLID_139_" class="st4" d="M108.3,144.7c0,0,0,0,0.1,0c0.1,0,0.2,0,0.3,0c0.3,0,0.7,0,1.2,0.1
								c0.5,0.1,1.1,0.2,1.8,0.5c0.7,0.3,1.3,0.8,1.9,1.5c0.6,0.7,1.1,1.6,1.3,2.7c0.2,1.1,0.1,2.3-0.3,3.5
								c-0.2,0.6-0.5,1.2-0.8,1.7c-0.3,0.6-0.6,1.1-0.9,1.8c-0.5,1.2-1,2.6-1.1,4l0,0.1l-0.1,0c-0.9,0-1.8,0-2.8,0c-1,0-2,0-2.9,0
								l-0.1,0l0-0.1c0-1.4-0.7-2.7-1.3-3.8c-0.3-0.6-0.7-1.1-1.1-1.7c-0.3-0.5-0.7-1-1-1.6c-0.6-1.1-0.6-2.4-0.4-3.4
								c0.2-1.1,0.6-2,1.1-2.8c0.5-0.8,1.2-1.3,1.8-1.6c0.6-0.4,1.2-0.5,1.7-0.7c0.5-0.1,0.9-0.2,1.1-0.2c0.1,0,0.2,0,0.3,0
								C108.3,144.7,108.3,144.7,108.3,144.7c0,0,0,0-0.1,0c-0.1,0-0.2,0-0.3,0c-0.3,0-0.6,0.1-1.1,0.2c-0.5,0.1-1.1,0.3-1.7,0.7
								c-0.6,0.4-1.3,0.9-1.8,1.6c-0.5,0.7-0.8,1.7-1,2.7c-0.2,1-0.1,2.2,0.4,3.3c0.3,0.5,0.6,1,1,1.6c0.3,0.5,0.7,1.1,1.1,1.7
								c0.7,1.2,1.3,2.5,1.4,3.9l-0.1-0.1c0.9,0,1.9,0,2.9,0c1,0,1.9,0,2.8,0l-0.1,0.1c0.2-1.5,0.6-2.8,1.2-4
								c0.3-0.6,0.6-1.2,0.9-1.8c0.3-0.6,0.6-1.1,0.8-1.7c0.4-1.1,0.5-2.3,0.3-3.4c-0.2-1-0.7-1.9-1.3-2.7c-0.6-0.7-1.2-1.2-1.9-1.5
								c-0.6-0.3-1.3-0.5-1.7-0.6c-0.5-0.1-0.9-0.1-1.2-0.1c-0.1,0-0.2,0-0.3,0C108.3,144.7,108.3,144.7,108.3,144.7z"/>
						</g>
					</g>
					<g id="XMLID_140_">
						<g id="XMLID_141_">
							<path class="st4" d="M109.7,160.3C109.7,160.3,109.7,160.3,109.7,160.3c0-0.2,0-0.2-0.1-0.3c0-0.2-0.1-0.6-0.2-1
								c-0.1-0.9-0.3-2.1-0.4-3.7c0-0.4-0.1-0.8-0.1-1.2c0-0.4,0-0.9,0-1.3c0-0.5,0.1-1,0.3-1.4c0.2-0.4,0.6-0.9,1.1-1.1
								c0.5-0.2,1.1-0.1,1.5,0.3c0.2,0.2,0.3,0.5,0.3,0.8c0,0.3-0.1,0.6-0.3,0.8c-0.2,0.2-0.4,0.4-0.7,0.5c-0.3,0.1-0.5,0.2-0.8,0.3
								c-0.6,0.1-1.2,0.2-1.8,0.2c-0.6,0-1.2,0-1.8-0.1c-0.3,0-0.6-0.1-0.8-0.2c-0.3-0.1-0.5-0.3-0.7-0.5c-0.2-0.2-0.3-0.5-0.4-0.8
								c-0.1-0.3,0-0.6,0.1-0.8c0.1-0.3,0.3-0.5,0.6-0.6c0.3-0.1,0.6-0.1,0.8,0c0.2,0.1,0.4,0.3,0.6,0.5c0.1,0.2,0.2,0.5,0.3,0.7
								c0.1,0.5,0.1,1,0.1,1.4c0,0.9,0.1,1.8,0.1,2.6c0.1,1.6,0.1,2.8,0.2,3.7c0,0.4,0,0.8,0,1c0,0.1,0,0.2,0,0.3c0,0.1,0,0.1,0,0.1
								s0,0,0-0.1c0-0.1,0-0.2,0-0.3c0-0.2,0-0.6-0.1-1c-0.1-0.9-0.1-2.2-0.2-3.7c0-0.8-0.1-1.6-0.1-2.6c0-0.5,0-0.9-0.1-1.4
								c-0.1-0.2-0.1-0.5-0.3-0.7c-0.1-0.2-0.3-0.4-0.6-0.5c-0.2-0.1-0.5-0.1-0.7,0c-0.2,0.1-0.4,0.3-0.5,0.5
								c-0.1,0.2-0.2,0.5-0.1,0.8c0.1,0.3,0.2,0.5,0.4,0.7c0.4,0.4,0.9,0.6,1.5,0.7c0.6,0.1,1.2,0.1,1.8,0.1c0.6,0,1.2-0.1,1.8-0.2
								c0.3-0.1,0.6-0.1,0.8-0.3c0.3-0.1,0.5-0.3,0.6-0.5c0.2-0.2,0.3-0.5,0.3-0.8c0-0.3-0.1-0.5-0.3-0.7c-0.4-0.4-1-0.5-1.4-0.3
								c-0.5,0.2-0.8,0.6-1,1c-0.2,0.4-0.3,0.9-0.3,1.4c0,0.5,0,0.9,0,1.3c0,0.4,0,0.8,0.1,1.2c0.1,1.6,0.3,2.8,0.4,3.7
								c0.1,0.4,0.1,0.8,0.1,1C109.7,160.1,109.7,160.2,109.7,160.3C109.7,160.3,109.7,160.3,109.7,160.3z"/>
						</g>
					</g>
					<g id="XMLID_142_">
						<g id="XMLID_143_">
							<path id="XMLID_144_" class="st4" d="M106,160.5c0,0,0,0.3,0.1,0.9c0,0.7,0.1,1.5,0.1,2.4l0-0.1c0.6,0.7,1.2,1.4,1.9,2.2
								l-0.1,0c0.7,0,1.4-0.1,2.2-0.1l-0.1,0c0.4-0.4,0.7-0.9,1.1-1.3c0.2-0.2,0.4-0.4,0.5-0.7l0,0.1c0-1.3-0.1-2.5-0.1-3.6l0.1,0.1
								c-1.6,0-3,0-4.1,0c-0.4,0-0.8,0-1.2,0C106.2,160.5,106,160.5,106,160.5c0,0,0.1,0,0.4,0c0.3,0,0.7,0,1.2-0.1
								c1.1,0,2.5-0.1,4.2-0.2l0.1,0l0,0.1c0,1.1,0.1,2.3,0.1,3.6l0,0l0,0c-0.2,0.2-0.4,0.4-0.5,0.7c-0.4,0.5-0.7,0.9-1.1,1.3l0,0
								l-0.1,0c-0.8,0-1.5,0.1-2.2,0.1l-0.1,0l0,0c-0.7-0.8-1.3-1.6-1.9-2.2l0,0l0,0c0-1,0-1.8,0-2.5C106,160.8,106,160.5,106,160.5
								z"/>
						</g>
					</g>
					<g id="XMLID_145_">
						<g id="XMLID_146_">
							<path class="st4" d="M111.7,163.6c0,0-0.1,0-0.2-0.1c-0.1-0.1-0.3-0.1-0.6-0.2c-0.5-0.2-1.2-0.3-2-0.3c-0.8,0-1.5,0.2-2,0.4
								c-0.2,0.1-0.4,0.2-0.6,0.3c-0.1,0.1-0.2,0.1-0.2,0.1c0,0,0.1-0.1,0.2-0.1c0.1-0.1,0.3-0.2,0.5-0.3c0.5-0.2,1.2-0.4,2-0.5
								c0.8,0,1.5,0.1,2,0.3c0.2,0.1,0.4,0.2,0.6,0.3C111.6,163.6,111.7,163.6,111.7,163.6z"/>
						</g>
					</g>
					<g id="XMLID_147_">
						<g id="XMLID_148_">
							<path class="st4" d="M111.7,162.8c0,0-0.1,0-0.2-0.1s-0.3-0.1-0.6-0.2c-0.5-0.2-1.2-0.3-2-0.3c-0.8,0-1.5,0.2-2,0.4
								c-0.2,0.1-0.4,0.2-0.6,0.3c-0.1,0.1-0.2,0.1-0.2,0.1c0,0,0.1-0.1,0.2-0.1c0.1-0.1,0.3-0.2,0.5-0.3c0.5-0.2,1.2-0.4,2-0.5
								c0.8,0,1.5,0.1,2,0.3c0.2,0.1,0.4,0.2,0.6,0.3C111.6,162.7,111.7,162.8,111.7,162.8z"/>
						</g>
					</g>
					<g id="XMLID_149_">
						<g id="XMLID_150_">
							<path class="st4" d="M111.6,161.9c0,0-0.1,0-0.2-0.1c-0.1-0.1-0.3-0.1-0.6-0.2c-0.5-0.2-1.2-0.3-2-0.3c-0.8,0-1.5,0.2-2,0.4
								c-0.2,0.1-0.4,0.2-0.6,0.3c-0.1,0.1-0.2,0.1-0.2,0.1c0,0,0.1-0.1,0.2-0.1c0.1-0.1,0.3-0.2,0.5-0.3c0.5-0.2,1.2-0.4,2-0.5
								c0.8,0,1.5,0.1,2,0.3c0.2,0.1,0.4,0.2,0.6,0.3C111.6,161.9,111.6,161.9,111.6,161.9z"/>
						</g>
					</g>
				</g>
			</g>
		</g>
		<g id="XMLID_151_">
			<g id="XMLID_152_">
				<g id="XMLID_153_">
					<path id="XMLID_154_" class="st2" d="M63.2,105c0,0,0.2,22.4,1.3,29.2l28.1-1.3c0,0-2.5-22-1.5-27.9H63.2z"/>
				</g>
				<g id="XMLID_155_">
					<g id="XMLID_156_">
						
							<ellipse id="XMLID_157_" transform="matrix(0.9982 -6.003781e-002 6.003781e-002 0.9982 -6.7604 4.8549)" class="st4" cx="77.4" cy="114.9" rx="9.4" ry="0.3"/>
					</g>
				</g>
				<g id="XMLID_158_">
					<g id="XMLID_159_">
						
							<ellipse id="XMLID_160_" transform="matrix(0.9982 -6.003781e-002 6.003781e-002 0.9982 -7.0452 4.8639)" class="st4" cx="77.4" cy="119.7" rx="9.4" ry="0.3"/>
					</g>
				</g>
				<g id="XMLID_161_">
					<g id="XMLID_162_">
						
							<ellipse id="XMLID_163_" transform="matrix(0.9982 -6.004047e-002 6.004047e-002 0.9982 -7.3118 4.8289)" class="st4" cx="76.7" cy="124.1" rx="5.4" ry="0.3"/>
					</g>
				</g>
			</g>
		</g>
		<g id="XMLID_164_">
			<g id="XMLID_165_">
				<g id="XMLID_166_">
					<path id="XMLID_167_" class="st2" d="M61.8,170.8c0,0,0.2,22.4,1.3,29.2l28.1-1.3c0,0-2.5-22-1.5-27.9H61.8z"/>
				</g>
				<g id="XMLID_168_">
					<g id="XMLID_169_">
						
							<ellipse id="XMLID_170_" transform="matrix(0.9982 -6.003749e-002 6.003749e-002 0.9982 -10.7188 4.8939)" class="st4" cx="76.1" cy="180.8" rx="9.4" ry="0.3"/>
					</g>
				</g>
				<g id="XMLID_171_">
					<g id="XMLID_172_">
						
							<ellipse id="XMLID_173_" transform="matrix(0.9982 -6.003781e-002 6.003781e-002 0.9982 -11.0037 4.9029)" class="st4" cx="76.1" cy="185.6" rx="9.4" ry="0.3"/>
					</g>
				</g>
				<g id="XMLID_174_">
					<g id="XMLID_175_">
						
							<ellipse id="XMLID_176_" transform="matrix(0.9982 -6.004973e-002 6.004973e-002 0.9982 -11.2722 4.8687)" class="st4" cx="75.4" cy="190" rx="5.4" ry="0.3"/>
					</g>
				</g>
			</g>
		</g>
		<g id="XMLID_177_">
			<g id="XMLID_178_">
				<polygon id="XMLID_179_" class="st2" points="138.6,110.9 141.4,175.5 222,176.5 218.4,111.7 				"/>
			</g>
			<g id="XMLID_180_">
				<g id="XMLID_181_">
					<g id="XMLID_182_">
						<rect id="XMLID_183_" x="137.7" y="110.4" class="st3" width="80.1" height="60.5"/>
					</g>
					<g id="XMLID_184_">
						<g id="XMLID_185_">
							<path id="XMLID_186_" class="st0" d="M217.8,170.9c0,0,0-0.4,0-1.1c0-0.7,0-1.8,0-3.2c0-2.8,0-7-0.1-12.2
								c0-10.5-0.1-25.6-0.1-43.9l0.2,0.2c-22.6,0-50.3,0-80.1,0h0l0.3-0.3c0,21.8,0,42.4,0,60.5l-0.2-0.2
								c23.7,0.1,43.7,0.1,57.8,0.1c7,0,12.6,0.1,16.4,0.1c1.9,0,3.4,0,4.4,0c0.5,0,0.9,0,1.1,0
								C217.6,170.9,217.8,170.9,217.8,170.9s-0.1,0-0.4,0c-0.3,0-0.6,0-1.1,0c-1,0-2.4,0-4.3,0c-3.8,0-9.4,0-16.4,0.1
								c-14.1,0-34.2,0.1-57.9,0.1l-0.2,0l0-0.2c0-18.1,0-38.7,0-60.5l0-0.3h0.3h0c29.8,0,57.5,0,80.1,0l0.2,0l0,0.2
								c0,18.3-0.1,33.5-0.1,44c0,5.2,0,9.4-0.1,12.2c0,1.4,0,2.4,0,3.2C217.8,170.6,217.8,170.9,217.8,170.9z"/>
						</g>
					</g>
				</g>
				<g id="XMLID_187_">
					<g id="XMLID_188_">
						<rect id="XMLID_189_" x="147.3" y="123.2" class="st3" width="32.5" height="40.9"/>
					</g>
					<g id="XMLID_190_">
						<g id="XMLID_191_">
							<path id="XMLID_192_" class="st0" d="M179.8,164.1c0,0,0-0.1,0-0.2c0-0.2,0-0.3,0-0.6c0-0.5,0-1.3,0-2.2c0-2,0-4.8-0.1-8.4
								c0-7.2-0.1-17.4-0.1-29.5l0.2,0.2c-9.7,0-20.8,0-32.5,0c-0.1,0.1,0.5-0.5,0.3-0.3v0v0v0v0.1v0.2v0.4l0,0.7l0,1.4
								c0,0.9,0,1.9,0,2.8c0,1.9,0,3.7,0,5.5c0,3.6,0,7.2,0,10.6c0,6.9,0,13.3,0,19.1l-0.2-0.2c9.7,0,17.8,0.1,23.5,0.1
								c2.8,0,5,0,6.6,0.1c0.7,0,1.3,0,1.7,0C179.6,164.1,179.8,164.1,179.8,164.1c0,0-0.2,0-0.6,0c-0.4,0-1,0-1.7,0
								c-1.5,0-3.7,0-6.5,0.1c-5.7,0-13.9,0.1-23.7,0.1l-0.2,0l0-0.2c0-5.8,0-12.3,0-19.1c0-3.4,0-7,0-10.6c0-1.8,0-3.7,0-5.5
								c0-0.9,0-1.9,0-2.8l0-1.4l0-0.7v-0.4v-0.2v-0.1v0v0v0c-0.2,0.2,0.3-0.3,0.3-0.3c11.7,0,22.8,0,32.5,0l0.2,0l0,0.2
								c-0.1,12.2-0.1,22.4-0.1,29.6c0,3.6-0.1,6.4-0.1,8.3c0,0.9,0,1.7,0,2.2c0,0.2,0,0.4,0,0.6
								C179.8,164.1,179.8,164.1,179.8,164.1z"/>
						</g>
					</g>
				</g>
				<g id="XMLID_193_">
					<g id="XMLID_194_">
						<rect id="XMLID_195_" x="148.6" y="113.9" class="st3" width="62.2" height="5.9"/>
					</g>
					<g id="XMLID_196_">
						<g id="XMLID_197_">
							<path id="XMLID_198_" class="st0" d="M210.8,119.8c0,0,0-0.1,0-0.4c0-0.3,0-0.7,0-1.1c0-1,0-2.5-0.1-4.3l0.1,0.1
								c-10.5,0.1-34.4,0.2-62.2,0.2h0c0.5-0.6,0.2-0.2,0.3-0.3v0v0v0v0v0v0.1v0.2v0.4l0,0.8c0,0.5,0,1,0,1.5c0,1,0,2,0,2.9
								l-0.3-0.3c17.4,0,32.9,0.1,44.1,0.1c5.6,0,10.1,0.1,13.2,0.1c1.5,0,2.7,0,3.6,0c0.4,0,0.7,0,0.9,0
								C210.7,119.8,210.8,119.8,210.8,119.8c0,0-0.1,0-0.3,0c-0.2,0-0.5,0-0.9,0c-0.8,0-2,0-3.5,0c-3.1,0-7.6,0-13.2,0.1
								c-11.2,0-26.8,0.1-44.3,0.1l-0.3,0l0-0.3c0-0.9,0-1.9,0-2.9c0-0.5,0-1,0-1.5l0-0.8v-0.4v-0.2V114v0v0v0v0v0
								c0.1-0.1-0.3,0.3,0.3-0.3h0c27.8,0,51.7,0.1,62.2,0.2l0.1,0l0,0.1c0,1.9,0,3.4-0.1,4.4c0,0.5,0,0.8,0,1.1
								C210.8,119.7,210.8,119.8,210.8,119.8z"/>
						</g>
					</g>
				</g>
				<g id="XMLID_199_">
					<g id="XMLID_200_">
						<rect id="XMLID_201_" x="183.8" y="123.2" class="st3" width="27" height="24.6"/>
					</g>
					<g id="XMLID_202_">
						<g id="XMLID_203_">
							<path id="XMLID_204_" class="st0" d="M210.8,147.9c0,0,0-0.2,0-0.5c0-0.3,0-0.8,0-1.3c0-1.2,0-2.9-0.1-5
								c0-4.3-0.1-10.5-0.1-17.8l0.2,0.2c-7.8,0-17.1,0-27,0c-0.1,0.1,0.5-0.5,0.3-0.3v0v0v0v0.1v0.1v0.2v0.4l0,0.8
								c0,0.6,0,1.1,0,1.7c0,1.1,0,2.2,0,3.3c0,2.2,0,4.3,0,6.4c0,4.1,0,8,0,11.7l-0.2-0.2c8,0.1,14.7,0.1,19.5,0.1
								c2.3,0,4.2,0,5.5,0.1c0.6,0,1.1,0,1.5,0C210.6,147.9,210.8,147.9,210.8,147.9c0,0-0.2,0-0.5,0c-0.4,0-0.8,0-1.4,0
								c-1.3,0-3.2,0-5.5,0.1c-4.8,0-11.6,0.1-19.7,0.1l-0.2,0l0-0.2c0-3.6,0-7.5,0-11.7c0-2.1,0-4.2,0-6.4c0-1.1,0-2.2,0-3.3
								c0-0.6,0-1.1,0-1.7l0-0.8v-0.4v-0.2v-0.1v-0.1v0v0v0c-0.2,0.2,0.3-0.3,0.3-0.3c9.9,0,19.2,0,27,0l0.2,0l0,0.2
								c0,7.4-0.1,13.6-0.1,17.9c0,2.1,0,3.8-0.1,5c0,0.5,0,1,0,1.3C210.8,147.7,210.8,147.9,210.8,147.9z"/>
						</g>
					</g>
				</g>
				<g id="XMLID_205_">
					<g id="XMLID_206_">
						<rect id="XMLID_207_" x="183.8" y="151.7" class="st3" width="27" height="12.4"/>
					</g>
					<g id="XMLID_208_">
						<g id="XMLID_209_">
							<path id="XMLID_210_" class="st0" d="M210.8,164.1c0,0,0-0.3,0-0.9c0-0.6,0-1.4,0-2.5c0-2.2-0.1-5.2-0.1-9l0.2,0.2
								c-7,0-16.6,0-27,0.1c-0.2,0.2,0.3-0.3,0.3-0.3v0v0v0v0v0.1v0.1v0.2l0,0.4l0,0.8c0,0.5,0,1.1,0,1.6c0,1.1,0,2.1,0,3.2
								c0,2.1,0,4.1,0,6l-0.3-0.3c7.8,0.1,14.5,0.1,19.3,0.1c2.4,0,4.3,0.1,5.6,0.1c0.6,0,1.1,0,1.5,0
								C210.6,164.1,210.8,164.1,210.8,164.1c0,0-0.2,0-0.5,0c-0.4,0-0.9,0-1.5,0c-1.4,0-3.2,0-5.6,0.1c-4.9,0-11.6,0.1-19.5,0.1
								l-0.3,0l0-0.3c0-1.9,0-3.9,0-6c0-1,0-2.1,0-3.2c0-0.5,0-1.1,0-1.6l0-0.8l0-0.4v-0.2v-0.1v-0.1v0v0v0v0
								c-0.1,0.1,0.5-0.5,0.3-0.3c10.5,0,20,0.1,27,0.1l0.2,0l0,0.2c0,3.8-0.1,6.9-0.1,9.1c0,1,0,1.8-0.1,2.4
								C210.8,163.8,210.8,164.1,210.8,164.1z"/>
						</g>
					</g>
				</g>
				<g id="XMLID_211_">
					<g id="XMLID_212_">
						<path id="XMLID_213_" class="st4" d="M179,123.3c-10.1,13.9-21.6,26.9-31.7,40.8"/>
					</g>
					<g id="XMLID_214_">
						<g id="XMLID_215_">
							<path id="XMLID_216_" class="st0" d="M147.3,164.1c0,0,0.1-0.2,0.3-0.5c0.2-0.3,0.5-0.7,0.8-1.2c0.7-1.1,1.9-2.6,3.3-4.5
								c2.8-3.8,6.8-8.8,11.3-14.4c4.5-5.6,8.5-10.6,11.4-14.3c1.4-1.8,2.5-3.3,3.4-4.4c0.4-0.5,0.7-0.9,0.9-1.2
								c0.2-0.3,0.3-0.4,0.4-0.4c0,0-0.1,0.2-0.3,0.5c-0.2,0.3-0.5,0.7-0.8,1.2c-0.7,1.1-1.9,2.6-3.3,4.5
								c-2.8,3.8-6.8,8.8-11.3,14.4c-4.5,5.6-8.5,10.6-11.4,14.3c-1.4,1.8-2.5,3.3-3.4,4.4c-0.4,0.5-0.7,0.9-0.9,1.2
								C147.5,164,147.4,164.1,147.3,164.1z"/>
						</g>
					</g>
				</g>
				<g id="XMLID_217_">
					<g id="XMLID_218_">
						<line id="XMLID_219_" class="st4" x1="147.3" y1="123.2" x2="179.8" y2="164.1"/>
					</g>
					<g id="XMLID_220_">
						<g id="XMLID_221_">
							
								<ellipse id="XMLID_222_" transform="matrix(0.6221 0.7829 -0.7829 0.6221 174.3015 -73.7722)" class="st0" cx="163.6" cy="143.7" rx="26.1" ry="0.3"/>
						</g>
					</g>
				</g>
			</g>
			<g id="XMLID_223_">
				<circle id="XMLID_224_" class="st0" cx="136.3" cy="123.3" r="5.1"/>
			</g>
			<g id="XMLID_225_">
				<circle id="XMLID_226_" class="st0" cx="219.4" cy="111" r="5.1"/>
			</g>
		</g>
	</g>
	<g id="XMLID_227_">
		<g id="XMLID_228_">
			<g id="XMLID_229_">
				<g id="XMLID_230_">
					<g id="XMLID_231_">
						<g id="XMLID_232_">
							<rect x="364.7" y="146.4" class="st0" width="58.5" height="84.9"/>
						</g>
					</g>
				</g>
			</g>
		</g>
		<g id="XMLID_233_">
			<g id="XMLID_234_">
				<g id="XMLID_235_">
					<g id="XMLID_236_">
						<g id="XMLID_237_">
							<rect x="361.7" y="146.4" class="st3" width="58.5" height="84.9"/>
						</g>
					</g>
				</g>
			</g>
		</g>
		<g id="XMLID_238_">
			<g id="XMLID_239_">
				<g id="XMLID_240_">
					<g id="XMLID_241_">
						<g id="XMLID_242_">
							<g id="XMLID_243_">
								<rect id="XMLID_244_" x="369" y="155.6" class="st4" width="44" height="66.5"/>
							</g>
						</g>
					</g>
				</g>
			</g>
			<g id="XMLID_245_">
				<g id="XMLID_246_">
					<g id="XMLID_247_">
						<g id="XMLID_248_">
							<g id="XMLID_249_">
								<g id="XMLID_250_">
									<path id="XMLID_251_" class="st0" d="M413,222c0,0,0-0.1,0-0.3c0-0.2,0-0.5,0-0.9c0-0.8,0-2.1,0-3.6c0-3.2,0-7.8,0-13.7
										c0-11.7,0-28.3-0.1-47.9l0.1,0.1c-13.4,0-28.3,0-44,0h0l0.2-0.2c0,25.1,0,48.2,0,66.5l-0.1-0.1c13.4,0,24.4,0.1,32,0.1
										c3.8,0,6.8,0,8.8,0c1,0,1.8,0,2.3,0C412.7,222,413,222,413,222s-0.3,0-0.8,0c-0.5,0-1.3,0-2.3,0c-2,0-5,0-8.8,0
										c-7.7,0-18.7,0-32.1,0.1l-0.1,0V222c0-18.3,0-41.4,0-66.5l0-0.2h0.2h0c15.7,0,30.5,0,44,0h0.1l0,0.1
										c0,19.6-0.1,36.2-0.1,48c0,5.9,0,10.5,0,13.7c0,1.6,0,2.8,0,3.6c0,0.4,0,0.7,0,0.9C413,221.9,413,222,413,222z"/>
								</g>
							</g>
						</g>
					</g>
				</g>
			</g>
		</g>
		<g id="XMLID_252_">
			<g id="XMLID_253_">
				<g id="XMLID_254_">
					<g id="XMLID_255_">
						<g id="XMLID_256_">
							<g id="XMLID_257_">
								<path id="XMLID_258_" class="st5" d="M411,156"/>
							</g>
						</g>
					</g>
				</g>
			</g>
		</g>
		<g id="XMLID_259_">
			<g id="XMLID_260_">
				<g id="XMLID_261_">
					<g id="XMLID_262_">
						<g id="XMLID_263_">
							<g id="XMLID_264_">
								<path id="XMLID_265_" class="st0" d="M420.4,146.4c0,0-0.4,0.6-1,1.5c-0.7,0.9-1.6,2.1-2.7,3.5c-1.1,1.3-2.1,2.5-2.9,3.4
									c-0.8,0.8-1.3,1.3-1.3,1.3c0,0,0.4-0.6,1.1-1.5c0.8-1,1.8-2.1,2.8-3.4c1.1-1.3,2-2.5,2.8-3.4
									C419.9,146.9,420.4,146.4,420.4,146.4z"/>
							</g>
						</g>
					</g>
				</g>
			</g>
		</g>
		<g id="XMLID_266_">
			<g id="XMLID_267_">
				<g id="XMLID_268_">
					<g id="XMLID_269_">
						<g id="XMLID_270_">
							<g id="XMLID_271_">
								<path id="XMLID_272_" class="st4" d="M413.2,221.8c2.2,3.5,4.8,6.7,7.7,9.6"/>
							</g>
						</g>
					</g>
				</g>
			</g>
			<g id="XMLID_273_">
				<g id="XMLID_274_">
					<g id="XMLID_275_">
						<g id="XMLID_276_">
							<g id="XMLID_277_">
								<g id="XMLID_278_">
									<path id="XMLID_279_" class="st0" d="M420.9,231.4c0,0-0.6-0.4-1.3-1.2c-0.8-0.8-1.8-1.9-2.9-3.3c-1.1-1.3-1.9-2.6-2.5-3.5
										c-0.6-0.9-0.9-1.6-0.9-1.6c0,0,0.4,0.5,1.1,1.4c0.6,0.9,1.6,2.1,2.6,3.5c1.1,1.3,2.1,2.5,2.8,3.3
										C420.5,230.9,420.9,231.4,420.9,231.4z"/>
								</g>
							</g>
						</g>
					</g>
				</g>
			</g>
		</g>
		<g id="XMLID_280_">
			<g id="XMLID_281_">
				<g id="XMLID_282_">
					<g id="XMLID_283_">
						<g id="XMLID_284_">
							<g id="XMLID_285_">
								<path id="XMLID_286_" class="st4" d="M361.7,231.2c2.6-3.2,5.1-6.3,7.7-9.5"/>
							</g>
						</g>
					</g>
				</g>
			</g>
			<g id="XMLID_287_">
				<g id="XMLID_288_">
					<g id="XMLID_289_">
						<g id="XMLID_290_">
							<g id="XMLID_291_">
								<g id="XMLID_292_">
									
										<ellipse id="XMLID_293_" transform="matrix(0.6297 -0.7769 0.7769 0.6297 -40.5346 367.8506)" class="st0" cx="365.6" cy="226.4" rx="6.1" ry="0.2"/>
								</g>
							</g>
						</g>
					</g>
				</g>
			</g>
		</g>
		<g id="XMLID_294_">
			<g id="XMLID_295_">
				<g id="XMLID_296_">
					<g id="XMLID_297_">
						<g id="XMLID_298_">
							<g id="XMLID_299_">
								
									<ellipse id="XMLID_300_" transform="matrix(-0.6203 -0.7843 0.7843 -0.6203 473.5601 531.0947)" class="st0" cx="365.3" cy="150.9" rx="5.8" ry="0.2"/>
							</g>
						</g>
					</g>
				</g>
			</g>
		</g>
		<g id="XMLID_301_">
			<g id="XMLID_302_">
				<g id="XMLID_303_">
					<g id="XMLID_304_">
						<g id="XMLID_305_">
							<rect x="384.6" y="169.1" class="st0" width="14.7" height="41.8"/>
						</g>
					</g>
				</g>
			</g>
		</g>
	</g>
	<g id="XMLID_306_">
		<g id="XMLID_307_">
			<g id="XMLID_308_">
				<g id="XMLID_309_">
					
						<rect id="XMLID_791_" x="401.4" y="56.3" transform="matrix(1 -5.357791e-003 5.357791e-003 1 -0.4073 2.1744)" class="st0" width="8.4" height="41.7"/>
				</g>
			</g>
		</g>
		<g id="XMLID_310_">
			<g id="XMLID_311_">
				<g id="XMLID_312_">
					<g id="XMLID_313_">
						
							<rect id="XMLID_790_" x="328.8" y="56.4" transform="matrix(1 -5.354392e-003 5.354392e-003 1 -0.3588 1.8195)" class="st2" width="21.7" height="23"/>
					</g>
				</g>
			</g>
			<g id="XMLID_314_">
				<g id="XMLID_315_">
					<g id="XMLID_316_">
						
							<rect id="XMLID_789_" x="350.4" y="56.3" transform="matrix(1 -5.354414e-003 5.354414e-003 1 -0.3578 1.9352)" class="st3" width="21.7" height="23"/>
					</g>
				</g>
			</g>
			<g id="XMLID_317_">
				<g id="XMLID_318_">
					<g id="XMLID_319_">
						<g id="XMLID_320_">
							<path class="st0" d="M328.8,62.8c14.4,0.1,28.9,0,43.3-0.2c0.3,0,0.3-0.5,0-0.5c-14.4-0.1-28.9,0-43.3,0.3
								C328.5,62.4,328.5,62.8,328.8,62.8L328.8,62.8z"/>
						</g>
					</g>
				</g>
			</g>
		</g>
		<g id="XMLID_321_">
			<g id="XMLID_322_">
				<g id="XMLID_323_">
					<g id="XMLID_324_">
						
							<rect id="XMLID_788_" x="315.2" y="79.1" transform="matrix(1 -5.359059e-003 5.359059e-003 1 -0.4693 1.7963)" class="st2" width="39.4" height="18.8"/>
					</g>
				</g>
			</g>
			<g id="XMLID_325_">
				<g id="XMLID_326_">
					<g id="XMLID_327_">
						
							<rect id="XMLID_787_" x="354.5" y="78.9" transform="matrix(1 -5.356509e-003 5.356509e-003 1 -0.4674 2.0057)" class="st3" width="39.4" height="18.8"/>
					</g>
				</g>
			</g>
			<g id="XMLID_328_">
				<g id="XMLID_329_">
					<g id="XMLID_330_">
						<g id="XMLID_331_">
							<path class="st0" d="M315.2,84.4c26.2,0.3,52.5,0,78.7-0.4c0.3,0,0.3-0.5,0-0.5c-26.2-0.1-52.5-0.1-78.7,0.5
								C315,84,315,84.4,315.2,84.4L315.2,84.4z"/>
						</g>
					</g>
				</g>
			</g>
		</g>
		<g id="XMLID_332_">
			<g id="XMLID_333_">
				<g id="XMLID_334_">
					<rect x="300.5" y="98" class="st0" width="152.8" height="6.7"/>
				</g>
			</g>
			<g id="XMLID_335_">
				<g id="XMLID_336_">
					<rect x="325.5" y="101.2" class="st0" width="6.2" height="22.9"/>
				</g>
			</g>
			<g id="XMLID_337_">
				<g id="XMLID_338_">
					<rect x="418.1" y="101.2" class="st0" width="6.2" height="22.9"/>
				</g>
			</g>
		</g>
		<g id="XMLID_339_">
			<g id="XMLID_340_">
				<g id="XMLID_341_">
					
						<rect id="XMLID_786_" x="409.7" y="40.7" transform="matrix(1 -5.357783e-003 5.357783e-003 1 -0.3658 2.2183)" class="st2" width="8.4" height="57.4"/>
				</g>
			</g>
		</g>
		<g id="XMLID_342_">
			<g id="XMLID_343_">
				<g id="XMLID_344_">
					<g id="XMLID_345_">
						
							<rect id="XMLID_785_" x="418.1" y="51.4" transform="matrix(1 -5.360371e-003 5.360371e-003 1 -0.394 2.277)" class="st3" width="13" height="46.5"/>
					</g>
				</g>
			</g>
			<g id="XMLID_346_">
				<g id="XMLID_347_">
					<g id="XMLID_348_">
						<ellipse id="XMLID_349_" class="st0" cx="424.4" cy="60.3" rx="6.5" ry="0.2"/>
					</g>
				</g>
			</g>
			<g id="XMLID_350_">
				<g id="XMLID_351_">
					<g id="XMLID_352_">
						<ellipse id="XMLID_353_" class="st0" cx="424.4" cy="58.4" rx="6.5" ry="0.2"/>
					</g>
				</g>
			</g>
			<g id="XMLID_354_">
				<g id="XMLID_355_">
					<g id="XMLID_356_">
						<ellipse id="XMLID_357_" class="st0" cx="424.4" cy="90.8" rx="6.5" ry="0.2"/>
					</g>
				</g>
			</g>
			<g id="XMLID_358_">
				<g id="XMLID_359_">
					<g id="XMLID_360_">
						<ellipse id="XMLID_361_" class="st0" cx="424.4" cy="88.9" rx="6.5" ry="0.2"/>
					</g>
				</g>
			</g>
			<g id="XMLID_362_">
				<g id="XMLID_363_">
					<g id="XMLID_364_">
						<ellipse id="XMLID_365_" class="st0" cx="424.6" cy="74.2" rx="0.2" ry="10.5"/>
					</g>
				</g>
			</g>
		</g>
		<g id="XMLID_366_">
			<g id="XMLID_367_">
				<g id="XMLID_368_">
					<rect x="431" y="62.8" class="st2" width="14.2" height="35.1"/>
				</g>
			</g>
			<g id="XMLID_369_">
				<g id="XMLID_370_">
					<path id="XMLID_371_" class="st1" d="M438.5,88.8c-1.9,0-3.2-1.3-3.2-3.2c0-1,0.4-1.9,1.1-2.4l0.3,0.4
						c-0.6,0.5-0.9,1.1-0.9,1.9c0,1.5,1.1,2.5,2.6,2.5s2.6-1.1,2.6-2.5c0-0.8-0.3-1.5-0.9-1.9l0.3-0.4c0.8,0.5,1.1,1.4,1.1,2.4
						C441.7,87.4,440.4,88.8,438.5,88.8z"/>
				</g>
				<g id="XMLID_373_">
					<path id="XMLID_374_" class="st1" d="M440.9,82.4l-0.5-0.3c0.4-0.5,0.8-1.3,0.8-2.2c0-1.3-0.5-1.8-1.2-1.8
						c-1.8,0-0.5,4.1-2.9,4.1c-0.9,0-1.7-0.8-1.7-2.4c0-0.8,0.2-1.6,0.6-2.1l0.5,0.3c-0.4,0.5-0.6,1.2-0.6,1.9
						c0,1.2,0.5,1.8,1.2,1.8c1.9,0,0.5-4.1,2.9-4.1c1,0,1.7,0.9,1.7,2.5C441.7,80.9,441.3,81.9,440.9,82.4z"/>
				</g>
				<g id="XMLID_376_">
					<path id="XMLID_377_" class="st1" d="M440.9,76.7l-0.5-0.3c0.4-0.5,0.8-1.3,0.8-2.2c0-1.3-0.5-1.8-1.2-1.8
						c-1.8,0-0.5,4.1-2.9,4.1c-0.9,0-1.7-0.8-1.7-2.4c0-0.8,0.2-1.7,0.6-2.1l0.5,0.3c-0.4,0.5-0.6,1.2-0.6,1.9
						c0,1.2,0.5,1.8,1.2,1.8c1.9,0,0.5-4.1,2.9-4.1c1,0,1.7,0.9,1.7,2.5C441.7,75.2,441.3,76.2,440.9,76.7z"/>
				</g>
			</g>
		</g>
		<g id="XMLID_379_">
			<g id="XMLID_380_">
				<circle class="st0" cx="413.6" cy="50.5" r="2.4"/>
			</g>
		</g>
		<g id="XMLID_381_">
			<g id="XMLID_382_">
				<rect x="412.8" y="57.1" class="st0" width="1.5" height="34.1"/>
			</g>
		</g>
	</g>
</g>
<g id="Background_Simple" class="st6">
	<path id="XMLID_383_" class="st7" d="M411.4,133.3l-2.1-3.5c-17.4-28.3-48.4-45.7-81.5-44.5c-5.3,0.2-10.5,0.8-15.7,1.9
		c-31,6.5-57.9,29.7-69,59.3c-6.6,17.4-8.4,37.5-20.9,51.3c-16.2,18-43.7,18.5-67.9,17.8c-24.2-0.7-51.8-0.1-67.9,17.9
		c-10.1,11.3-13.3,27.4-12.5,42.5c2.2,40.1,30.4,75.9,66.4,93.8s78.3,19.4,117.7,11.6c55.2-11,107.6-41.1,139.2-87.7
		C428.6,247,436.6,183.5,411.4,133.3z"/>
</g>
<g id="Floor">
	<g id="XMLID_384_">
		<g id="XMLID_385_">
			<path id="XMLID_386_" class="st8" d="M470.8,454c0,0.1-96.6,0.3-215.7,0.3c-119.2,0-215.7-0.1-215.7-0.3
				c0-0.1,96.6-0.3,215.7-0.3C374.2,453.8,470.8,453.9,470.8,454z"/>
		</g>
	</g>
</g>
<g id="Hourglass">
	<g id="XMLID_387_">
		<g id="XMLID_388_">
			<g id="XMLID_389_">
				<g id="XMLID_390_">
					<path id="XMLID_391_" class="st1" d="M156.2,110.2c-16,25.2-15,60.2,2.5,84.5c11.7,16.2,29.2,27,43.1,41.3
						c13.9,14.3,24.5,35.3,17.1,53.8c-7.5,18.9-29.4,26.5-45.8,38.5c-17.9,13-30.4,33.1-34.3,54.9c-3.8,21.8,1.1,45,13.4,63.3h170.4
						c0,0,29.9-57.1-8.6-100.5c-38.5-43.5-59.2-44.2-57.7-72.7c1.4-28.5,21.4-37.8,32.8-48.5s67-35.6,34.2-114.6H156.2z"/>
				</g>
				<g id="XMLID_392_">
					<g id="XMLID_393_">
						<path id="XMLID_394_" class="st8" d="M156.2,110.2c0,0,1,0,2.9,0c2,0,4.8,0,8.6,0c7.6,0,18.8,0,33.3,0
							c28.9,0,70.7-0.1,122.5-0.1h0.1l0,0.1c2.3,5.9,4.7,12,6.4,18.5c1.7,6.4,3.1,13.1,3.6,20.1c0.5,6.9,0.3,14.1-1.1,21.2
							c-1.4,7.1-4,14.1-7.7,20.6c-1.9,3.3-4.1,6.3-6.4,9.3c-2.4,3-5,5.7-7.9,8.4c-2.8,2.7-5.8,5.2-8.9,7.5c-3.1,2.4-6.3,4.7-9.5,7.1
							c-1.6,1.2-3,2.5-4.5,3.9c-1.5,1.3-3.1,2.6-4.7,3.8c-3.1,2.5-6.3,5-9.3,7.8c-6.1,5.4-11.2,12.2-14,20.1
							c-1.4,3.9-2.3,8.1-2.7,12.3c-0.1,1.1-0.2,2.1-0.3,3.2c0,1.1-0.1,2.1,0,3.2c0,2.1,0.3,4.2,0.6,6.3c0.8,4.2,2.6,8.2,5.1,11.7
							c2.5,3.5,5.6,6.6,8.8,9.6c6.5,5.9,13.3,11.6,19.9,17.7c6.6,6.1,13,12.5,19.2,19.2c3.1,3.4,6.2,6.8,8.9,10.5
							c2.8,3.7,5.1,7.7,7.1,11.9c4,8.4,6.5,17.6,7.3,27c0.9,9.4,0.2,19-1.7,28.4c-0.9,4.7-2.2,9.4-3.7,13.9
							c-1.5,4.6-3.2,9.1-5.4,13.5l-0.1,0.1h-0.2c-1.4,0-2.9,0-4.4,0c-58.2,0-114.3,0-166,0h-0.1l-0.1-0.1
							c-8.1-12.2-12.9-26.2-14.3-40.2c-1.4-14,0.7-28.1,5.9-40.6c5.1-12.5,13-23.5,22.5-32.2c4.8-4.4,10.1-7.9,15.4-11.2
							c5.3-3.3,10.7-6.4,15.8-9.7c5.1-3.4,9.9-6.9,13.9-11.3c4-4.3,7-9.4,8.6-14.9c1.6-5.5,1.6-11.2,0.7-16.6
							c-0.9-5.4-2.9-10.5-5.3-15.3c-2.4-4.7-5.4-9.1-8.6-13c-3.2-4-6.8-7.5-10.4-10.8c-7.2-6.6-14.6-12.4-21.2-18.4
							c-3.3-3-6.5-6-9.4-9.1c-2.9-3.1-5.5-6.3-7.8-9.6c-4.6-6.6-7.7-13.5-9.8-20.2c-2.1-6.7-3.1-13.2-3.3-19.1
							c-0.1-1.5-0.1-2.9-0.1-4.4c0-1.4,0-2.8,0.1-4.2c0.1-1.4,0.2-2.7,0.3-4c0.2-1.3,0.4-2.5,0.5-3.7c1.5-9.7,4.4-16.7,6.7-21.2
							c0.5-1.1,1-2.2,1.5-3c0.5-0.8,0.9-1.5,1.2-2.1C155.8,110.8,156.2,110.2,156.2,110.2c-0.1,0.1-0.3,0.6-1,1.7
							c-0.3,0.6-0.7,1.3-1.2,2.1c-0.5,0.8-1,1.8-1.5,3c-2.2,4.5-5.1,11.6-6.6,21.2c-0.2,1.2-0.4,2.4-0.5,3.7
							c-0.1,1.3-0.2,2.6-0.3,3.9c-0.1,1.3-0.1,2.7-0.1,4.2c0,1.4-0.1,2.9,0.1,4.4c0.2,5.9,1.3,12.4,3.3,19.1
							c2.1,6.7,5.2,13.6,9.7,20.1c2.3,3.3,4.9,6.5,7.8,9.5c2.9,3.1,6,6.1,9.4,9c6.6,6,14,11.8,21.3,18.4c3.6,3.3,7.2,6.9,10.4,10.9
							c3.2,4,6.2,8.3,8.6,13.1c2.4,4.7,4.4,9.9,5.3,15.4c0.9,5.4,0.9,11.2-0.7,16.8c-1.6,5.5-4.7,10.7-8.7,15
							c-4,4.4-8.9,8-13.9,11.4c-5.1,3.4-10.5,6.4-15.8,9.7c-5.3,3.3-10.6,6.8-15.3,11.2c-9.5,8.6-17.3,19.5-22.4,32
							c-5.1,12.4-7.3,26.4-5.8,40.4c1.3,14,6.1,27.9,14.2,40l-0.2-0.1c51.7,0,107.9,0,166,0c1.5,0,3,0,4.4,0l-0.2,0.1
							c2.1-4.3,3.9-8.8,5.4-13.4c1.5-4.6,2.7-9.2,3.6-13.9c1.9-9.4,2.5-18.9,1.7-28.3c-0.8-9.4-3.3-18.5-7.3-26.8
							c-2-4.1-4.3-8.2-7.1-11.8c-2.7-3.7-5.8-7.1-8.8-10.5c-6.2-6.7-12.6-13.1-19.2-19.2c-6.6-6.1-13.4-11.7-19.9-17.7
							c-3.2-3-6.4-6.1-8.9-9.6c-2.6-3.5-4.4-7.6-5.2-11.9c-0.4-2.1-0.6-4.3-0.6-6.4c-0.1-1.1,0-2.1,0-3.2c0-1.1,0.2-2.1,0.3-3.2
							c0.3-4.3,1.3-8.4,2.7-12.4c2.8-8,8-14.8,14.1-20.3c3-2.8,6.2-5.3,9.4-7.8c1.6-1.3,3.1-2.5,4.6-3.8c1.5-1.3,3-2.7,4.6-3.9
							c3.2-2.4,6.4-4.7,9.5-7.1c3.1-2.4,6.1-4.9,8.9-7.5c2.8-2.6,5.4-5.4,7.8-8.4c2.4-3,4.5-6,6.4-9.3c3.7-6.4,6.2-13.4,7.7-20.4
							c1.4-7.1,1.6-14.2,1.1-21.1c-0.5-6.9-1.9-13.6-3.6-20c-1.7-6.4-4-12.5-6.3-18.4l0.2,0.1c-51.7,0-93.5-0.1-122.4-0.1
							c-14.5,0-25.7,0-33.3,0c-3.8,0-6.7,0-8.7,0C157.2,110.3,156.2,110.2,156.2,110.2z"/>
					</g>
				</g>
			</g>
			<g id="XMLID_395_">
				<path id="XMLID_396_" class="st9" d="M316.7,156.5c25.1,4.1-14.5,48.6-36.9,66.1c-13,10.2-26.9,21.2-33.1,36.5
					c-7,17.3-1.8,36.8-5.2,54.3c-0.6,2.9-4.8,2.4-4.8-0.5c0.2-11.4-0.1-22.9-2-34.2c-2.7-16-8.8-31.8-20-43.5
					c-9.1-9.6-21.1-15.9-30.9-24.9c-14.2-13.1-28.9-29.9-30.3-49.1c0,0,27.3-22,42.5-19.2c17.7,3.2,35.2,30.6,62.7,27.5
					C277.9,167.2,287.6,151.7,316.7,156.5z"/>
			</g>
			<g id="XMLID_397_">
				<path id="XMLID_398_" class="st9" d="M318.9,394.5c-0.6-6.3-2.3-13.4-7.9-16.3c-3.4-1.8-7.5-1.6-11.2-0.6
					c-3.7,1-7.2,2.7-10.8,3.7c-7.2,2.1-15.1,1.9-22.2-0.7c-6.8-2.5-12.7-7-19-10.6c-6.3-3.6-13.7-6.2-20.8-4.5
					c-12.1,3-18.5,17.6-30.5,21.2c-5.3,1.6-11.1,0.7-16.5-0.5c-5.4-1.2-10.9-2.8-16.4-2.6c-4.4,0.2-8.9,1.7-11.9,4.7l0,0
					c0,0-0.1,0.1-0.1,0.1c-0.5,0.5-1,1-1.4,1.6c-3.7,5-4.3,11.6-3.2,17.7c1.3,6.8,4.5,13.1,7.9,19.1c4,7.1,8.6,14.1,15.2,18.8
					c8.2,5.8,18.5,1.8,28.5,2.6c23.3,1.8,48.4,3.1,71.8,1.3c12.3-1,23.9,0.4,33.7-7.2c6.9-5.3,11.4-13.3,13.5-21.8
					C319.8,412,319.8,403.1,318.9,394.5z"/>
			</g>
			<g id="XMLID_399_" class="st10">
				<g id="XMLID_400_">
					<path id="XMLID_401_" d="M274.9,382.5c-1.3,2-1.9,4.7-0.6,6.8c1.3,2,3,3.9,3.5,6.3c0.9,3.7-1.4,7.3-3,10.7
						c-3,6.1-4.3,13-3.3,19.7c1,6.7,4.4,13.1,9.8,17.2c2.4,1.8,5.4,3.2,8.3,2.4c2.7-0.8,4.4-3.6,5-6.3c0.5-2.8,0.1-5.6-0.3-8.4
						c-1.6-13-1.3-26.2,1-39.1c0.4-2.2,0.7-4.6-0.6-6.3c-0.9-1.1-2.3-1.6-3.6-2C285.9,381.6,280.2,383.5,274.9,382.5"/>
				</g>
			</g>
			<g id="XMLID_402_">
				<path id="XMLID_403_" class="st8" d="M139.8,454.3c0,0-0.5-7.8,9.7-12.2h179.3c0,0,9.3,4.7,10.5,12L139.8,454.3z"/>
			</g>
			<g id="XMLID_404_">
				<path class="st8" d="M325,111.2c-0.1,0-0.2,0.1-0.3,0.1l-168.6-1.1c0,0-0.6-0.4-1.5-1.1c-4.8-3.8-2.1-11.5,4-11.4l163.6,1.3
					C329,99.1,331.1,108.3,325,111.2z"/>
			</g>
			<g id="XMLID_405_" class="st10">
				<g id="XMLID_406_">
					<path id="XMLID_407_" d="M298,175.5c0.3,0.6-0.9,2.1-3.3,4.2c-2.4,2.1-6,5.1-10.5,8.7c-4.5,3.6-10,7.9-17,12
						c-3.5,2-7.4,3.9-11.6,5.3c-2.1,0.7-4.4,1.4-6.7,1.8c-2.3,0.5-4.7,0.8-7.2,0.9c-5,0.3-10-0.4-14.5-2c-4.5-1.6-8.3-3.8-11.7-6
						c-3.4-2.2-6.3-4.4-9-6.5c-2.7-2.1-5.2-4.1-7.4-6.1c-8.9-7.7-13.5-13.3-12.6-14.4c0.9-1.1,7.2,2.5,17,8.5c2.4,1.5,5.1,3.1,8,4.9
						c2.9,1.7,5.9,3.7,9.1,5.4c3.2,1.8,6.4,3.4,9.8,4.4c3.4,1,7,1.5,10.8,1.3c7.7-0.4,15.1-3.1,21.6-6.2c6.5-3.2,12.3-6.8,17.4-9.6
						c5.1-2.9,9.4-5,12.5-6.1C295.8,175.1,297.7,174.9,298,175.5z"/>
				</g>
			</g>
			<g id="XMLID_408_">
				<path id="XMLID_409_" class="st9" d="M236.9,334.3c1.8-0.7,4.1,1.2,3.7,3.1c-0.3,1.9-3,3-4.6,1.7c-1.5-1.2-1.1-4.1,0.7-4.8"/>
			</g>
			<g id="XMLID_410_">
				<g id="XMLID_411_">
					<path id="XMLID_412_" class="st8" d="M176.6,203.4c0,0-0.2-0.2-0.6-0.6c-0.4-0.4-0.9-1-1.6-1.8c-0.7-0.8-1.6-1.7-2.5-2.9
						c-0.9-1.2-2-2.5-3.2-4c-1.1-1.5-2.3-3.2-3.6-5c-0.6-0.9-1.2-1.9-1.8-2.9c-0.3-0.5-0.6-1-0.9-1.5c-0.3-0.5-0.6-1.1-0.9-1.6
						c-2.5-4.3-4.7-9.4-6.2-14.9c-1.6-5.5-2.3-11-2.4-16c0-1.2,0.1-2.5,0.1-3.6c0-0.6,0-1.2,0.1-1.7c0.1-0.6,0.1-1.1,0.2-1.7
						c0.1-1.1,0.2-2.2,0.4-3.2c0.2-1,0.4-2,0.5-2.9c0.3-1.9,0.8-3.5,1.1-5c0.2-0.7,0.3-1.4,0.5-2c0.2-0.6,0.4-1.2,0.5-1.7
						c0.3-1,0.6-1.7,0.8-2.3c0.2-0.5,0.3-0.8,0.3-0.8c0,0-0.1,0.3-0.2,0.8c-0.2,0.6-0.4,1.4-0.7,2.3c-0.2,0.5-0.3,1.1-0.5,1.7
						c-0.2,0.6-0.3,1.3-0.5,2c-0.3,1.5-0.8,3.1-1.1,4.9c-0.2,0.9-0.3,1.9-0.5,2.9c-0.1,1-0.2,2.1-0.3,3.2c-0.1,0.5-0.1,1.1-0.2,1.7
						c-0.1,0.6,0,1.1-0.1,1.7c0,1.2-0.1,2.4-0.1,3.6c0.1,5,0.8,10.4,2.4,15.9c1.5,5.5,3.7,10.5,6.1,14.9c0.3,0.5,0.6,1.1,0.9,1.6
						c0.3,0.5,0.6,1,0.9,1.5c0.6,1,1.2,2,1.8,2.9c1.2,1.8,2.4,3.5,3.5,5c1.1,1.5,2.2,2.8,3.1,4c0.9,1.2,1.8,2.1,2.5,2.9
						c0.7,0.8,1.2,1.4,1.6,1.9C176.4,203.1,176.6,203.4,176.6,203.4z"/>
				</g>
			</g>
			<g id="XMLID_413_">
				<g id="XMLID_414_">
					<path id="XMLID_415_" class="st8" d="M167.1,351.9c0,0,0.1-0.1,0.2-0.3c0.1-0.2,0.3-0.5,0.6-0.9c0.3-0.4,0.6-0.9,1-1.5
						c0.2-0.3,0.4-0.6,0.6-1c0.2-0.3,0.5-0.7,0.8-1c0.6-0.7,1.2-1.5,2-2.4c0.8-0.8,1.7-1.7,2.6-2.6c1.9-1.8,4.2-3.8,6.9-5.8
						c5.3-4,12.2-8,19.6-12.7c3.7-2.4,7.6-4.9,11.2-7.9c3.7-3,7.2-6.5,10.1-10.6c5.7-8.4,7.9-18.1,8.1-26.8
						c0.2-8.8-1.6-16.6-3.8-22.8c-2.2-6.2-4.8-11-6.6-14.2c-0.9-1.6-1.7-2.8-2.2-3.7c-0.2-0.4-0.4-0.7-0.6-0.9
						c-0.1-0.2-0.2-0.3-0.2-0.3c0,0,0.1,0.1,0.2,0.3c0.2,0.2,0.4,0.5,0.6,0.9c0.6,0.8,1.3,2,2.3,3.6c1.9,3.2,4.5,7.9,6.8,14.2
						c2.3,6.2,4.2,14.1,4,22.9c0,2.2-0.2,4.5-0.6,6.7c-0.3,2.3-0.8,4.6-1.5,6.9c-1.3,4.6-3.4,9.2-6.2,13.5
						c-2.9,4.2-6.5,7.7-10.2,10.8c-3.7,3.1-7.6,5.6-11.3,7.9c-7.5,4.7-14.3,8.6-19.6,12.6c-2.7,2-5,3.9-6.9,5.7
						c-0.9,0.9-1.8,1.8-2.6,2.6c-0.7,0.9-1.4,1.6-2,2.4c-0.3,0.4-0.6,0.7-0.8,1c-0.2,0.3-0.4,0.7-0.6,1c-0.4,0.6-0.7,1.1-1,1.5
						c-0.3,0.4-0.5,0.7-0.6,0.9C167.2,351.8,167.1,351.9,167.1,351.9z"/>
				</g>
			</g>
			<g id="XMLID_416_">
				<g id="XMLID_417_">
					<path id="XMLID_418_" class="st8" d="M157.8,369.6c0,0-0.1,0.2-0.2,0.5c-0.2,0.3-0.4,0.8-0.7,1.3c-0.3,0.5-0.7,1.2-1.1,2
						c-0.4,0.8-0.9,1.7-1.3,2.7c-0.2,0.5-0.5,1.1-0.7,1.6c-0.2,0.6-0.4,1.2-0.7,1.8c-0.5,1.2-0.9,2.6-1.3,4
						c-0.8,2.9-1.4,6.1-1.7,9.5c-0.3,3.4-0.3,6.7,0,9.7c0.2,1.5,0.3,2.9,0.5,4.2c0.1,0.7,0.2,1.3,0.3,1.9c0.1,0.6,0.3,1.2,0.4,1.7
						c0.2,1.1,0.6,2.1,0.8,2.9c0.2,0.9,0.5,1.6,0.7,2.2c0.2,0.6,0.3,1,0.5,1.4c0.1,0.3,0.1,0.5,0.1,0.5c0,0-0.1-0.2-0.2-0.5
						c-0.2-0.4-0.3-0.8-0.6-1.3c-0.2-0.6-0.5-1.3-0.8-2.2c-0.3-0.9-0.6-1.8-0.9-2.9c-0.1-0.6-0.3-1.1-0.4-1.7
						c-0.1-0.6-0.2-1.2-0.4-1.9c-0.3-1.3-0.4-2.7-0.6-4.2c-0.3-3-0.3-6.3,0-9.8c0.3-3.5,1-6.7,1.8-9.6c0.4-1.4,0.8-2.8,1.4-4
						c0.2-0.6,0.5-1.2,0.7-1.8c0.3-0.6,0.5-1.1,0.7-1.6c0.4-1,1-1.9,1.4-2.7c0.4-0.8,0.8-1.5,1.2-2c0.3-0.5,0.6-0.9,0.8-1.2
						C157.7,369.7,157.8,369.6,157.8,369.6z"/>
				</g>
			</g>
		</g>
		<g id="XMLID_419_">
			<g id="XMLID_420_">
				<path id="XMLID_421_" class="st8" d="M281.4,393.6c0,0-0.1,0.1-0.2,0.1c-0.2,0.1-0.4,0.2-0.6,0.4c-0.6,0.4-1.4,0.8-2.4,1.5
					c-0.5,0.3-1.1,0.7-1.8,1c-0.7,0.4-1.4,0.7-2.2,1.1c-1.6,0.8-3.3,1.7-5.4,2.5c-1,0.4-2.1,0.9-3.2,1.3c-1.1,0.4-2.3,0.8-3.5,1.2
					c-2.4,0.9-5.1,1.5-7.9,2.3c-5.7,1.3-12,2.2-18.8,2.4c-6.7,0.1-13.1-0.5-18.9-1.4c-2.9-0.6-5.6-1.1-8.1-1.8
					c-1.2-0.4-2.5-0.6-3.6-1c-1.1-0.4-2.2-0.8-3.3-1.1c-2.1-0.7-3.9-1.5-5.5-2.2c-0.8-0.4-1.6-0.7-2.2-1c-0.7-0.3-1.3-0.7-1.8-0.9
					c-1.1-0.6-1.9-1-2.5-1.3c-0.3-0.1-0.5-0.3-0.6-0.4c-0.1-0.1-0.2-0.1-0.2-0.1c0,0,0.1,0,0.2,0.1c0.2,0.1,0.4,0.2,0.7,0.3
					c0.6,0.3,1.5,0.7,2.5,1.2c0.6,0.3,1.2,0.6,1.8,0.9c0.7,0.3,1.4,0.6,2.2,0.9c1.6,0.6,3.4,1.5,5.5,2.1c1,0.4,2.1,0.7,3.3,1.1
					c1.1,0.4,2.4,0.6,3.6,1c2.5,0.7,5.2,1.2,8,1.8c5.7,0.9,12.1,1.5,18.8,1.4c6.7-0.2,13-1.1,18.7-2.4c2.8-0.7,5.5-1.3,7.9-2.2
					c1.2-0.4,2.4-0.7,3.5-1.2c1.1-0.4,2.2-0.9,3.2-1.3c2.1-0.8,3.8-1.7,5.4-2.4c0.8-0.4,1.5-0.7,2.2-1.1c0.6-0.4,1.2-0.7,1.8-1
					c1-0.6,1.9-1,2.5-1.4c0.3-0.1,0.5-0.3,0.7-0.3C281.3,393.7,281.4,393.6,281.4,393.6z"/>
			</g>
		</g>
		<g id="XMLID_422_">
			<g id="XMLID_423_">
				<path id="XMLID_424_" class="st8" d="M291.9,182c0,0-0.1,0.1-0.2,0.2c-0.2,0.1-0.4,0.3-0.7,0.5c-0.6,0.5-1.5,1.2-2.6,2
					c-2.2,1.8-5.4,4.3-9.5,7.3c-4.1,3-9,6.5-14.9,9.8c-3,1.6-6.1,3.2-9.6,4.4c-3.5,1.2-7.2,2.2-11.1,2.5c-7.8,0.5-15.2-1.5-21.2-4.4
					c-3-1.5-5.7-3.2-8.2-4.9c-2.4-1.7-4.7-3.4-6.6-5c-4-3.2-7.1-5.9-9.2-7.7c-1.1-0.9-1.9-1.6-2.5-2.1c-0.3-0.2-0.5-0.4-0.6-0.6
					c-0.1-0.1-0.2-0.2-0.2-0.2c0,0,0.1,0,0.2,0.2c0.2,0.1,0.4,0.3,0.7,0.5c0.6,0.5,1.5,1.2,2.5,2.1c2.2,1.8,5.3,4.4,9.3,7.6
					c2,1.6,4.2,3.2,6.7,4.9c2.5,1.7,5.2,3.3,8.2,4.8c6,2.9,13.3,4.9,21,4.3c3.8-0.3,7.5-1.2,10.9-2.4c3.4-1.2,6.6-2.8,9.5-4.3
					c5.8-3.2,10.8-6.7,14.9-9.7c4.1-3,7.3-5.5,9.6-7.2c1.1-0.8,2-1.5,2.6-2c0.3-0.2,0.5-0.4,0.7-0.5
					C291.8,182.1,291.8,182,291.9,182z"/>
			</g>
		</g>
		<g id="XMLID_425_" class="st10">
			<g id="XMLID_426_">
				<path id="XMLID_427_" d="M201.7,402c4.7-3.7,11.4-2.8,17.3-1.5c5.9,1.2,11.8,3.2,17.7,2.4c4.5-0.6,8.6-2.8,13-3.8
					c4.4-1,9.8-0.2,12.2,3.5C242.4,409,220.9,408.8,201.7,402"/>
			</g>
		</g>
	</g>
</g>
<g id="Character">
	<g id="XMLID_428_">
		<g id="XMLID_429_">
			<g id="XMLID_430_">
				<g id="XMLID_431_">
					<g id="XMLID_432_">
						<path class="st9" d="M367,374.9l-21.5-24.1l-0.2,29.3l6.5,18.8l-64.4,11.2l-2.7-50.8l-4.6-39c-0.6-4.8,2.2-9.3,6.6-11.1
							l17.7-7l25,4.6l10,3.8c4.2,1.6,8,4.2,10.9,7.6l30.2,34.6"/>
					</g>
				</g>
				<g id="XMLID_433_">
					<g id="XMLID_434_">
						<path id="XMLID_435_" class="st4" d="M344,345c0-0.1,1.4,0.1,3.6-0.3c2.2-0.3,5.2-1.4,7.8-3.7c2.5-2.3,3.8-5.3,4.4-7.4
							c0.5-2.2,0.4-3.6,0.5-3.6c0,0,0.1,0.3,0.1,1c0,0.6-0.1,1.6-0.3,2.7c-0.4,2.2-1.7,5.3-4.4,7.7c-2.6,2.4-5.8,3.5-8.1,3.7
							c-1.1,0.1-2.1,0.1-2.7,0.1C344.3,345.1,344,345.1,344,345z"/>
					</g>
				</g>
				<g id="XMLID_436_">
					<g id="XMLID_437_">
						<g id="XMLID_438_">
							
								<ellipse transform="matrix(8.182188e-003 1 -1 8.182188e-003 699.0281 7.5954)" class="st8" cx="345.7" cy="356.2" rx="22.7" ry="0.3"/>
						</g>
					</g>
				</g>
			</g>
			<g id="XMLID_439_">
				<path class="st9" d="M343.5,386.3l-38.9-15.7c-3.1-1.3-5.3-4.2-5.5-7.6l-2.8-37.3c0,0,0.3-15.9-9.6-16.6l-5.6,2.2
					c-7.3,3.9-9.1,14.5-8.1,22.7c1.4,11.6,2,28.1,3.6,38.2c1.3,8.3,6,15.5,14.1,17.7l47.9,10.4L343.5,386.3z"/>
			</g>
			<g id="XMLID_440_">
				<g id="XMLID_441_">
					<path id="XMLID_442_" class="st8" d="M296.7,331.4c0,0,0.1,0.3,0.1,0.9c0.1,0.6,0.1,1.4,0.3,2.5c0.2,2.2,0.5,5.3,0.8,9.1
						c0.3,3.8,0.7,8.4,1.2,13.4c0.1,1.3,0.2,2.6,0.3,3.9c0.1,1.3,0.2,2.7,0.5,4c0.3,1.3,0.9,2.6,1.9,3.5c1,0.9,2.3,1.6,3.6,2.2
						c10.7,4.6,20.6,8.5,27.8,11.2c3.6,1.3,6.5,2.4,8.5,3.1c1,0.4,1.7,0.6,2.3,0.9c0.5,0.2,0.8,0.3,0.8,0.3c0,0-0.3-0.1-0.8-0.2
						c-0.6-0.2-1.4-0.4-2.4-0.8c-2-0.7-5-1.7-8.6-3c-7.2-2.6-17.1-6.4-27.9-11c-1.3-0.6-2.7-1.3-3.7-2.3c-1.1-1-1.8-2.4-2.1-3.8
						c-0.3-1.4-0.4-2.7-0.5-4.1c-0.1-1.3-0.2-2.6-0.3-3.9c-0.4-5-0.7-9.6-1-13.4c-0.3-3.8-0.5-6.9-0.7-9.1c-0.1-1-0.1-1.9-0.2-2.5
						C296.7,331.7,296.7,331.4,296.7,331.4z"/>
				</g>
			</g>
			<g id="XMLID_443_">
				<g id="XMLID_444_">
					<path id="XMLID_445_" class="st8" d="M274.4,351.7c0,0,0,0.2,0.1,0.5c0,0.4,0.1,0.9,0.1,1.4c0.1,1.3,0.3,3.1,0.5,5.3
						c0.2,2.2,0.5,4.9,0.9,7.8c0.4,2.9,0.9,6.2,1.8,9.5c0.4,1.7,1,3.2,1.9,4.5c0.9,1.3,1.9,2.5,2.9,3.6c2.1,2.1,4.3,3.6,6.2,4.7
						c4,2.1,6.9,2.1,6.8,2.2c0,0-0.2,0-0.5,0c-0.3,0-0.8-0.1-1.4-0.2c-1.2-0.2-3-0.7-5.1-1.7c-2-1-4.3-2.5-6.4-4.7
						c-1.1-1.1-2.1-2.3-3-3.6c-0.9-1.4-1.6-3-2-4.7c-0.9-3.3-1.4-6.6-1.7-9.5c-0.4-3-0.6-5.6-0.8-7.9c-0.2-2.2-0.3-4.1-0.3-5.3
						c0-0.6,0-1.1,0-1.4C274.4,351.9,274.4,351.7,274.4,351.7z"/>
				</g>
			</g>
			<g id="XMLID_446_">
				<g id="XMLID_447_">
					<path id="XMLID_448_" class="st8" d="M291.1,377.8c-0.1,0,0.1-0.8,0.7-2.1c0.6-1.2,1.7-2.8,3.3-4.2c1.6-1.4,3.3-2.2,4.6-2.6
						c1.3-0.4,2.2-0.4,2.2-0.4c0,0.1-0.8,0.2-2,0.7c-1.2,0.5-2.9,1.3-4.4,2.6c-1.5,1.3-2.6,2.8-3.3,3.9
						C291.5,377.1,291.2,377.9,291.1,377.8z"/>
				</g>
			</g>
			<g id="XMLID_449_">
				<g id="XMLID_450_">
					<path id="XMLID_451_" class="st4" d="M298.7,349.5c0,0,0.1,0,0.2,0.1c0.2,0.1,0.4,0.2,0.7,0.4c0.6,0.3,1.5,0.8,2.8,1.2
						c2.4,0.8,6.3,1.7,10.9,0.9c4.6-0.7,9.9-3.4,13.6-8.4c1.8-2.5,3.2-5.5,3.6-8.8c0.2-1.7,0-3.4-0.5-5c-0.5-1.6-1.5-3.1-2.8-4.3
						c-1.3-1.2-2.9-2-4.6-2.2c-1.7-0.3-3.4,0.2-4.6,1.3c-0.6,0.6-0.9,1.3-0.9,2.1c0,0.8,0.3,1.5,0.8,2.1c0.9,1.3,2.5,1.8,4,2.1
						c3,0.4,6-0.1,8.5-1.2c2.5-1.1,4.6-2.7,6-4.5c1.5-1.8,2.4-3.7,2.9-5.5c0.5-1.8,0.7-3.4,0.7-4.7c0-1.3-0.1-2.3-0.2-3
						c-0.1-0.3-0.1-0.6-0.1-0.8c0-0.2,0-0.3,0-0.3c0,0,0.6,1.4,0.6,4c0,1.3-0.1,3-0.7,4.8c-0.5,1.8-1.4,3.8-2.9,5.7
						c-1.5,1.9-3.6,3.5-6.1,4.7c-2.6,1.1-5.6,1.7-8.8,1.3c-1.5-0.2-3.2-0.8-4.3-2.2c-0.5-0.7-0.9-1.5-0.9-2.4c0-0.9,0.4-1.8,1-2.4
						c1.3-1.3,3.2-1.7,5-1.4c1.8,0.2,3.5,1.1,4.8,2.3c1.4,1.2,2.4,2.8,2.9,4.5c0.6,1.7,0.7,3.5,0.5,5.2c-0.3,3.4-1.8,6.5-3.7,9.1
						c-3.8,5.1-9.2,7.8-13.9,8.5c-4.7,0.7-8.6-0.2-11-1.1C299.9,350.4,298.7,349.5,298.7,349.5z"/>
				</g>
			</g>
			<g id="XMLID_452_">
				<g id="XMLID_453_">
					<path id="XMLID_454_" class="st4" d="M273.2,339.5c0,0,0.2-0.3,0.6-0.8c0.4-0.5,1.1-1.1,2.1-1.8c1.9-1.4,5-2.7,8.6-3.1
						c1.8-0.2,3.5-0.1,5.1,0.2c1.5,0.3,2.9,0.8,3.9,1.4c1.1,0.5,1.8,1.1,2.4,1.4c0.5,0.4,0.8,0.6,0.8,0.7c-0.1,0.1-1.2-0.8-3.3-1.8
						c-2.1-1-5.3-1.8-8.8-1.4c-3.5,0.3-6.6,1.5-8.5,2.8C274.3,338.5,273.3,339.6,273.2,339.5z"/>
				</g>
			</g>
			<g id="XMLID_455_">
				<g id="XMLID_456_">
					<path id="XMLID_457_" class="st4" d="M279.5,312.8c0.1-0.1,1,1.2,3.2,2.3c1.1,0.6,2.4,1,4,1.2c1.6,0.2,3.3,0,5-0.7
						c1.7-0.7,3.1-1.8,4-3.1c1-1.2,1.6-2.5,2-3.7c0.7-2.3,0.5-3.9,0.6-3.8c0,0,0.1,0.4,0.1,1.1c0,0.7-0.1,1.7-0.4,2.9
						c-0.3,1.2-1,2.6-2,3.9c-1,1.3-2.5,2.5-4.2,3.2c-1.8,0.7-3.6,0.9-5.3,0.7c-1.6-0.2-3.1-0.7-4.1-1.3c-1.1-0.6-1.9-1.3-2.3-1.8
						C279.7,313.2,279.5,312.8,279.5,312.8z"/>
				</g>
			</g>
			<g id="XMLID_458_">
				<g id="XMLID_459_">
					<path id="XMLID_460_" class="st4" d="M313.4,374.2c0,0,0-0.3,0.1-0.7c0.1-0.5,0.3-1.2,0.7-2c0.8-1.7,2.7-3.8,5.8-5.1
						c3-1.4,7.2-1.6,11.4-0.4c2.1,0.6,4.4,1.4,6,3.4c0.8,1,1,2.5,0.4,3.7c-0.6,1.2-1.6,2-2.8,2.6c-1.2,0.6-2.4,0.9-3.7,0.9
						c-1.3,0-2.6-0.3-3.5-1.1c-1-0.8-1.5-2-1.6-3.2c-0.1-1.2,0.1-2.3,0.5-3.4c1.7-4.2,5-6.8,8-8.1c3.1-1.3,5.8-1.5,7.7-1.3
						c1.8,0.2,2.8,0.6,2.8,0.6c0,0.1-1-0.3-2.8-0.4c-1.8-0.1-4.5,0.1-7.5,1.4c-1.5,0.7-3,1.6-4.4,3c-1.4,1.3-2.6,3-3.4,5
						c-0.4,1-0.6,2.1-0.5,3.2c0.1,1.1,0.5,2.2,1.4,2.9c0.9,0.7,2,1,3.2,1c1.2,0,2.4-0.3,3.5-0.9c1.1-0.5,2.1-1.3,2.5-2.4
						c0.5-1,0.3-2.3-0.4-3.1c-0.7-0.9-1.6-1.6-2.6-2.1c-1-0.5-2-0.8-3.1-1.1c-4.1-1.2-8.2-1-11.2,0.3c-3,1.2-5,3.2-5.8,4.8
						C313.5,373.1,313.5,374.2,313.4,374.2z"/>
				</g>
			</g>
			<g id="XMLID_461_">
				<g id="XMLID_462_">
					<path id="XMLID_463_" class="st4" d="M287.5,388.2c0-0.1,1.5-0.2,3.7-1c2.2-0.8,5.2-2.4,7.7-5.1c2.4-2.7,3.7-5.8,4.3-8.1
						c0.6-2.3,0.5-3.8,0.6-3.8c0,0,0.1,0.4,0.1,1.1c0,0.7-0.1,1.7-0.3,2.8c-0.5,2.4-1.7,5.6-4.3,8.4c-2.5,2.8-5.6,4.4-7.9,5.1
						c-1.2,0.4-2.1,0.5-2.8,0.6C287.9,388.3,287.5,388.3,287.5,388.2z"/>
				</g>
			</g>
			<g id="XMLID_464_">
				<g id="XMLID_465_">
					<path id="XMLID_466_" class="st4" d="M274.9,359.2c0,0,0.2-0.1,0.5-0.2c0.3-0.1,0.8-0.2,1.4-0.4c1.2-0.3,3-0.7,5.3-0.5
						c1.1,0.1,2.4,0.3,3.6,0.9c1.2,0.5,2.5,1.4,3.4,2.6c0.9,1.2,1.4,2.9,1.3,4.5c-0.1,0.8-0.3,1.7-0.8,2.4c-0.5,0.7-1.1,1.4-2,1.7
						c-0.9,0.3-1.9,0.1-2.6-0.5c-0.7-0.7-0.9-1.6-0.9-2.4c-0.1-1.7,0.3-3.3,0.9-4.6c1.2-2.8,3.5-4.6,5.7-5.4
						c2.2-0.8,4.1-0.7,5.3-0.5c0.6,0.1,1.1,0.2,1.4,0.4c0.3,0.1,0.5,0.2,0.5,0.2c0,0.1-0.7-0.2-1.9-0.4c-1.2-0.1-3.1-0.1-5.1,0.7
						c-2,0.8-4.2,2.6-5.4,5.2c-0.6,1.3-0.9,2.8-0.8,4.4c0,0.8,0.2,1.6,0.8,2.1c0.5,0.5,1.4,0.6,2.1,0.4c0.7-0.2,1.3-0.8,1.8-1.5
						c0.4-0.7,0.6-1.4,0.7-2.2c0.1-1.5-0.4-3.1-1.2-4.2c-0.8-1.2-2-2-3.2-2.5c-1.2-0.5-2.4-0.8-3.5-0.9c-2.2-0.2-4,0.1-5.2,0.4
						C275.5,359.1,274.9,359.3,274.9,359.2z"/>
				</g>
			</g>
			<g class="st11">
				<g id="XMLID_468_">
					<path id="XMLID_469_" d="M332.3,381.9c-4.2-2.4-8.2-4.2-12.6-6.1c-4.4-2-8.6-4.5-11.5-8.4c-5.4-7.2-4.8-17.7-10.3-24.8
						c0.4,4.8,0.7,9.6,1.1,14.4c0.3,4.4-0.3,8.8,2.5,11.8c2.4,2.5,7,4.5,10.3,5.5C318.6,376.4,325.7,379.7,332.3,381.9"/>
				</g>
			</g>
		</g>
		<g id="XMLID_467_">
			<g id="XMLID_470_">
				<g id="XMLID_471_">
					<path class="st9" d="M400,436.7c0,0,32.6,9,33.9,9.5c2,0.7,1.6,7.9-1.4,7.8c-1.4-0.1-25,0.9-28,0.7c-3-0.2-12-3.7-12-3.7
						L400,436.7z"/>
				</g>
			</g>
			<g id="XMLID_472_">
				<g id="XMLID_473_">
					<g id="XMLID_474_">
						<path class="st8" d="M413.5,449.1c0.2,0,0.4-1.7,1.4-3.5c1-1.8,2.4-2.9,2.3-3c-0.1-0.1-1.7,0.8-2.8,2.7
							C413.4,447.3,413.4,449.2,413.5,449.1z"/>
					</g>
				</g>
			</g>
			<g id="XMLID_475_">
				<g id="XMLID_476_">
					<g id="XMLID_477_">
						<path class="st8" d="M410.1,447.6c0.2,0,0.5-1.5,1.4-3.2c0.9-1.7,1.9-2.9,1.8-3c-0.1-0.1-1.4,1-2.3,2.8
							C410.1,445.9,410,447.6,410.1,447.6z"/>
					</g>
				</g>
			</g>
			<g id="XMLID_478_">
				<g id="XMLID_479_">
					<g id="XMLID_480_">
						<path class="st8" d="M406.9,446.7c0.2,0,0-1.6,0.8-3.4c0.7-1.8,1.9-2.9,1.8-3c-0.1-0.1-1.5,0.9-2.3,2.8
							C406.4,445.1,406.8,446.8,406.9,446.7z"/>
					</g>
				</g>
			</g>
			<g id="XMLID_481_">
				<g id="XMLID_482_">
					<g id="XMLID_483_">
						<path class="st8" d="M407.5,442.5c0.1,0,0.3-0.9,0.3-2.4c0-0.8-0.1-1.7-0.3-2.7c-0.1-0.5-0.3-1-0.5-1.5
							c-0.1-0.3-0.2-0.6-0.5-0.8c-0.3-0.3-0.9-0.2-1.1,0.1c-0.3,0.3-0.4,0.6-0.4,0.9c0,0.3,0,0.6,0,0.9c0,0.6,0.1,1.1,0.2,1.6
							c0.2,1,0.6,1.8,1,2.5c0.8,1.3,1.4,2,1.5,2c0.1-0.1-0.5-0.8-1.1-2.1c-0.3-0.7-0.7-1.5-0.9-2.4c-0.1-0.5-0.2-1-0.2-1.5
							c0-0.5,0-1.1,0.3-1.4c0.2-0.1,0.3-0.1,0.4,0c0.1,0.1,0.3,0.3,0.4,0.6c0.2,0.5,0.4,1,0.5,1.4c0.3,0.9,0.4,1.8,0.4,2.5
							C407.6,441.6,407.4,442.5,407.5,442.5z"/>
					</g>
				</g>
			</g>
			<g id="XMLID_484_">
				<g id="XMLID_485_">
					<g id="XMLID_486_">
						<path class="st8" d="M407.5,442.2c0-0.1-0.8-0.3-2.1-0.3c-0.7,0-1.5,0.1-2.3,0.3c-0.4,0.1-0.9,0.2-1.3,0.5
							c-0.4,0.2-0.9,0.8-0.7,1.5c0.1,0.6,0.7,1,1.2,1.2c0.5,0.1,1,0.1,1.5,0c0.9-0.2,1.6-0.6,2.1-1c1-0.8,1.6-1.4,1.5-1.5
							c-0.1-0.1-0.7,0.5-1.7,1.2c-0.5,0.3-1.2,0.7-2,0.9c-0.4,0.1-0.8,0.1-1.2,0c-0.4-0.1-0.7-0.4-0.8-0.8c-0.1-0.4,0.1-0.7,0.5-0.9
							c0.3-0.2,0.8-0.3,1.2-0.5c0.8-0.2,1.6-0.3,2.2-0.4C406.7,442.2,407.5,442.3,407.5,442.2z"/>
					</g>
				</g>
			</g>
			<g id="XMLID_487_">
				<g id="XMLID_488_">
					<g id="XMLID_489_">
						<path class="st8" d="M418.5,449.5c0.2,0,0-1.4,0.6-2.9c0.6-1.5,1.7-2.4,1.6-2.5c-0.1-0.1-1.4,0.6-2.1,2.3
							C418,448,418.4,449.5,418.5,449.5z"/>
					</g>
				</g>
			</g>
			<g id="XMLID_490_">
				<g id="XMLID_491_">
					<g id="XMLID_492_">
						<path class="st8" d="M395.8,451c0,0,0.4,0.2,1.3,0.6c0.8,0.3,2.1,0.8,3.6,1.1c3.1,0.8,7.6,1.2,12.4,1.2
							c4.9-0.1,9.3-0.3,12.5-0.4c1.5-0.1,2.8-0.1,3.8-0.2c0.9-0.1,1.4-0.1,1.4-0.1c0,0-0.5-0.1-1.4-0.1c-1,0-2.3,0-3.8,0
							c-3.3,0.1-7.6,0.1-12.5,0.2c-4.9,0.1-9.2-0.3-12.3-1C397.7,451.7,395.8,450.9,395.8,451z"/>
					</g>
				</g>
			</g>
			<g id="XMLID_493_">
				<g id="XMLID_494_">
					<g id="XMLID_495_">
						<path class="st8" d="M394.8,451.7c0,0.1,0.9-0.4,2.4-1.1c1.5-0.6,3.7-1.4,6.2-1c2.5,0.4,4.2,2,5.3,3.2c1.1,1.2,1.8,2,1.9,1.9
							c0,0-0.5-0.9-1.6-2.2c-0.5-0.6-1.2-1.4-2.2-2c-0.9-0.7-2.1-1.2-3.4-1.4c-2.6-0.4-4.9,0.5-6.4,1.2
							C395.6,451,394.8,451.7,394.8,451.7z"/>
					</g>
				</g>
			</g>
		</g>
		<g id="XMLID_496_">
			<g id="XMLID_497_">
				<g id="XMLID_498_">
					<path class="st9" d="M365.4,427.7c0,0-30.8,20.2-31.9,21c-1.7,1.3,0.2,7.2,3.1,6.2c1.4-0.5,27.2-7.7,30-8.8
						c2.8-1.1,10.3-7.2,10.3-7.2L365.4,427.7z"/>
				</g>
			</g>
			<g id="XMLID_499_">
				<g id="XMLID_500_">
					<g id="XMLID_501_">
						<path class="st8" d="M356.2,443.7c0.1,0-0.4-1.8-2.1-3.3c-1.6-1.5-3.5-1.9-3.5-1.8c-0.1,0.2,1.6,0.7,3.1,2.2
							C355.4,442.2,356.1,443.8,356.2,443.7z"/>
					</g>
				</g>
			</g>
			<g id="XMLID_502_">
				<g id="XMLID_503_">
					<g id="XMLID_504_">
						<path class="st8" d="M359,441.2c0.1-0.1-0.5-1.6-1.9-3c-1.4-1.4-2.9-2.1-3-1.9c-0.1,0.1,1.3,1,2.6,2.3
							C358.1,439.9,358.9,441.3,359,441.2z"/>
					</g>
				</g>
			</g>
			<g id="XMLID_505_">
				<g id="XMLID_506_">
					<g id="XMLID_507_">
						<path class="st8" d="M361.8,439.4c0.1,0,0-1.8-1.3-3.4c-1.3-1.6-3-2.2-3-2c-0.1,0.1,1.4,0.8,2.6,2.4
							C361.2,437.9,361.6,439.4,361.8,439.4z"/>
					</g>
				</g>
			</g>
			<g id="XMLID_508_">
				<g id="XMLID_509_">
					<g id="XMLID_510_">
						<path class="st8" d="M360,435.6c0.1,0-0.3-0.9-0.7-2.3c-0.2-0.7-0.3-1.6-0.4-2.6c0-0.5,0-1,0-1.5c0-0.3,0.1-0.5,0.2-0.7
							c0.1-0.1,0.2-0.2,0.4-0.1c0.4,0.1,0.5,0.7,0.7,1.2c0.2,0.5,0.3,1,0.3,1.5c0.1,1,0,1.8-0.1,2.6c-0.2,1.5-0.5,2.4-0.4,2.4
							c0.1,0,0.5-0.8,0.8-2.3c0.2-0.7,0.3-1.7,0.2-2.7c0-0.5-0.1-1-0.3-1.6c-0.1-0.3-0.2-0.5-0.3-0.8c-0.1-0.3-0.3-0.6-0.7-0.7
							c-0.3-0.2-0.9-0.1-1.1,0.3c-0.2,0.3-0.2,0.6-0.3,0.9c0,0.6,0,1.1,0,1.6c0.1,1,0.3,1.9,0.5,2.6
							C359.4,434.8,359.9,435.6,360,435.6z"/>
					</g>
				</g>
			</g>
			<g id="XMLID_511_">
				<g id="XMLID_512_">
					<g id="XMLID_513_">
						<path class="st8" d="M359.9,435.2c0,0.1,0.8-0.3,2-0.6c0.6-0.1,1.4-0.3,2.2-0.3c0.4,0,0.9,0,1.3,0.1c0.4,0.1,0.7,0.3,0.7,0.7
							c0,0.4-0.2,0.8-0.5,1c-0.3,0.2-0.7,0.3-1.1,0.4c-0.8,0.1-1.6-0.1-2.2-0.2c-1.2-0.4-2-0.7-2-0.6c0,0.1,0.7,0.5,1.9,1
							c0.6,0.2,1.4,0.4,2.3,0.3c0.4,0,0.9-0.1,1.4-0.4c0.5-0.3,0.8-0.8,0.8-1.5c0-0.7-0.7-1.1-1.2-1.2c-0.5-0.1-1-0.1-1.4-0.1
							c-0.9,0.1-1.7,0.2-2.3,0.4C360.5,434.7,359.9,435.2,359.9,435.2z"/>
					</g>
				</g>
			</g>
			<g id="XMLID_514_">
				<g id="XMLID_515_">
					<g id="XMLID_516_">
						<path class="st8" d="M340.5,453.8c0,0,0.5-0.3,0.8-1.2c0.3-0.9,0.1-2.2-0.6-3.3c-0.3-0.6-0.7-1.1-1-1.5
							c-0.3-0.4-0.7-0.9-1-1.1c-0.4-0.3-0.7-0.4-1-0.4c-0.3,0-0.4,0.1-0.4,0.1c0,0.1,0.6,0,1.1,0.6c0.3,0.3,0.6,0.7,0.9,1.1
							c0.3,0.5,0.7,1,1,1.5c0.6,1.1,0.8,2.2,0.7,3C340.8,453.3,340.4,453.7,340.5,453.8z"/>
					</g>
				</g>
			</g>
			<g id="XMLID_517_">
				<g id="XMLID_518_">
					<g id="XMLID_519_">
						<path class="st8" d="M351.6,445.5c0.1,0,0.1-1.6-1.1-3c-1.2-1.4-2.7-1.7-2.7-1.6c-0.1,0.2,1.2,0.7,2.3,1.9
							C351.1,444.2,351.4,445.6,351.6,445.5z"/>
					</g>
				</g>
			</g>
			<g id="XMLID_520_">
				<g id="XMLID_521_">
					<g id="XMLID_522_">
						<path class="st8" d="M373.7,440.1c0,0-0.5,0.3-1.4,0.9c-0.9,0.6-2.1,1.4-3.8,2.3c-1.7,0.9-3.7,1.8-6,2.7
							c-2.3,0.9-5,1.7-7.7,2.5c-5.5,1.6-10.6,3.1-14.2,4.1c-1.7,0.5-3.2,1-4.3,1.3c-1,0.3-1.6,0.5-1.5,0.6c0,0,0.6-0.1,1.6-0.3
							c1.1-0.3,2.6-0.7,4.3-1.1c3.7-1,8.7-2.4,14.2-4c2.8-0.8,5.4-1.6,7.7-2.5c2.3-0.9,4.4-1.9,6-2.8c1.7-0.9,2.9-1.8,3.7-2.5
							C373.3,440.5,373.7,440.1,373.7,440.1z"/>
					</g>
				</g>
			</g>
			<g id="XMLID_523_">
				<g id="XMLID_524_">
					<g id="XMLID_525_">
						<path class="st8" d="M374.8,440.5c0-0.1-1-0.4-2.6-0.7c-1.6-0.3-4.1-0.4-6.5,0.8c-1.2,0.6-2.1,1.5-2.8,2.4
							c-0.7,0.9-1.1,1.8-1.4,2.6c-0.6,1.5-0.9,2.5-0.9,2.6c0.1,0,0.5-0.9,1.2-2.4c0.7-1.4,1.9-3.5,4.1-4.6c2.2-1.1,4.6-1.1,6.2-0.9
							C373.8,440.3,374.8,440.6,374.8,440.5z"/>
					</g>
				</g>
			</g>
		</g>
		<g id="XMLID_526_">
			<g id="XMLID_527_">
				<g id="XMLID_528_">
					<path class="st8" d="M429.4,378.5c0,0,9.2,3.3,9.3,13.7c0.1,19.9-40.1,41.7-40.1,41.7l-53.5-35.4l-3.4-1.4
						C341.8,397.1,414,370,429.4,378.5z"/>
				</g>
			</g>
			<g id="XMLID_529_">
				<g id="XMLID_530_">
					<g id="XMLID_531_">
						<path class="st12" d="M372.2,416.4c0,0,0.5-0.3,1.4-0.9c0.9-0.6,2.1-1.6,3.7-2.8c3.1-2.4,7.2-5.7,11.7-9.6
							c4.5-3.9,8.4-7.5,11.2-10.1c1.4-1.3,2.5-2.4,3.3-3.2c0.8-0.8,1.2-1.2,1.1-1.2c0,0-0.5,0.4-1.3,1.1c-0.9,0.8-2,1.8-3.4,3.1
							c-2.9,2.6-6.8,6.2-11.3,10c-4.5,3.8-8.6,7.2-11.6,9.7c-1.4,1.2-2.6,2.2-3.5,2.9C372.6,416,372.2,416.4,372.2,416.4z"/>
					</g>
				</g>
			</g>
			<g id="XMLID_532_">
				<g id="XMLID_533_">
					<g id="XMLID_534_">
						<path class="st12" d="M414.3,385.9c0-0.1-2.4-0.4-5.2,0.5c-2.8,0.8-4.7,2.3-4.6,2.4c0.1,0.1,2-1.1,4.7-1.9
							C412,386.1,414.3,386.1,414.3,385.9z"/>
					</g>
				</g>
			</g>
			<g id="XMLID_535_">
				<g id="XMLID_536_">
					<g id="XMLID_537_">
						<path class="st12" d="M409.7,382.8c0-0.1-1.8,0.6-3.2,2.4c-1.4,1.7-1.8,3.6-1.7,3.6c0.2,0.1,0.7-1.6,2.1-3.3
							C408.3,383.9,409.8,382.9,409.7,382.8z"/>
					</g>
				</g>
			</g>
			<g id="XMLID_538_">
				<g id="XMLID_539_">
					<g id="XMLID_540_">
						<path class="st8" d="M432.4,445.7c0-0.1-0.6-0.2-1.4,0.4c-0.7,0.6-1.3,1.7-1.5,3.1c-0.2,1.4,0.1,2.6,0.5,3.4
							c0.4,0.8,0.8,1.2,0.8,1.2c0.1-0.1-0.2-0.5-0.5-1.3c-0.3-0.8-0.5-1.9-0.3-3.2c0.2-1.2,0.7-2.3,1.3-2.9
							C431.8,445.8,432.4,445.8,432.4,445.7z"/>
					</g>
				</g>
			</g>
		</g>
		<g id="XMLID_541_">
			<g id="XMLID_542_">
				<polygon class="st12" points="417.1,346.1 398.1,394.4 316,395.7 314.5,391.3 343.3,390.2 357.1,347.4 				"/>
			</g>
			<g id="XMLID_543_">
				<path id="XMLID_544_" class="st2" d="M378.8,367c1.1-0.7,3-0.4,3.9,0.4c0.9,0.8,1.3,2.3,0.8,3.5c-0.5,1.2-1.7,2-3,2.1
					c-1.3,0.1-2.8-0.8-3.1-2.1C377.1,369.6,377.5,367.7,378.8,367"/>
			</g>
		</g>
		<g id="XMLID_545_">
			<g id="XMLID_546_">
				<g id="XMLID_547_">
					<path class="st8" d="M403.7,436.3c0,0-75.6-49.6-78.7-50.6c-3.1-1-10.6-5.9-18.1-3.9c-7.5,2.1-14.2,8.8-17.5,18.6
						c-1.9,5.6-2.8,15.2-3.2,22.3c-0.5,8.6,2.1,17.1,7.7,23.6c2.5,3,5.7,5.5,9.4,6.7c0.8,0.2,1.6,0.5,2.4,0.6
						c14.3,3.1,29-3.3,37-15.5l1.8-2.7c0,0,49.4,18.2,50.2,17.9L403.7,436.3z"/>
				</g>
			</g>
			<g id="XMLID_548_">
				<g id="XMLID_549_">
					<g id="XMLID_550_">
						<path class="st12" d="M310.2,422.7c0,0,0.1,0.1,0.4,0.2c0.3,0.1,0.7,0.3,1.2,0.5c1.1,0.4,2.7,1,4.8,1.8
							c4.2,1.6,10.3,3.9,17.8,6.7c7.6,2.8,16.6,6.2,26.8,9.9c10.2,3.7,21.4,7.8,33.5,11.8l0.2,0.1l0.1-0.2c1.9-3.6,3.9-7.4,5.9-11.3
							c1-2,2.1-3.9,3-5.8l0.1-0.2l-0.2-0.1c-22.7-14.4-43-27.3-57.7-36.6c-7.3-4.6-13.2-8.3-17.3-10.9c-2-1.3-3.6-2.3-4.7-2.9
							c-0.5-0.3-0.9-0.6-1.2-0.8c-0.3-0.2-0.4-0.2-0.4-0.2s0.1,0.1,0.4,0.3c0.3,0.2,0.7,0.5,1.2,0.8c1.1,0.7,2.6,1.7,4.7,3
							c4.1,2.6,9.9,6.4,17.2,11.1c14.6,9.3,34.9,22.3,57.6,36.7l-0.1-0.4c-1,1.8-2,3.8-3,5.8c-2,3.9-4,7.7-5.9,11.3l0.3-0.1
							c-12-4.1-23.3-8.1-33.5-11.8c-10.2-3.7-19.2-7-26.8-9.8c-7.6-2.8-13.6-5-17.9-6.6c-2.1-0.8-3.7-1.3-4.8-1.8
							c-0.5-0.2-1-0.3-1.3-0.4C310.3,422.7,310.2,422.7,310.2,422.7z"/>
					</g>
				</g>
			</g>
		</g>
		<g id="XMLID_551_">
			<g id="XMLID_552_">
				<path id="XMLID_553_" class="st8" d="M318,246.6c1.3-3.5,4.1-5,7.7-5.9s7.6,0.2,10.4,2.7c1.8,1.7,3.2,4,5.4,5
					c3.7,1.7,8.5-0.8,12,1.3c2.1,1.2,3.1,4,2.3,6.3c-0.8,2.3-3.3,3.8-5.7,3.5c2.4,1.1,2.9,4.8,1.2,6.9s-4.8,2.7-7.3,1.9
					c-2.6-0.7-4.7-2.5-6.6-4.5c-1.8-2-3.4-4.2-5.4-6c-2-1.8-4.4-3.3-7.1-3.4c-3.6-0.1-7,2.3-8.9,5.4c-1.9,3.1-2.6,6.8-3.1,10.4
					c-0.5,3.6-0.9,7.3-2.3,10.6c-0.2,0.4-0.4,0.8-0.8,0.9c-0.6,0.1-1-0.5-1.3-1.1c-2.7-6.4-4.2-13.3-4.3-20.3c0-4,0.4-7.8,2.9-11
					S315.5,244.3,318,246.6"/>
			</g>
			<g id="XMLID_554_">
				<g id="XMLID_555_">
					<g id="XMLID_556_">
						<g id="XMLID_557_">
							<g id="XMLID_558_">
								<g id="XMLID_559_">
									<g id="XMLID_560_">
										<g id="XMLID_561_">
											<g id="XMLID_562_">
												<g id="XMLID_563_">
													<g id="XMLID_564_">
														<g id="XMLID_565_">
															<g id="XMLID_566_">
																<g id="XMLID_567_">
																	<path class="st13" d="M309.5,262.8l-5.6,40.4c-0.9,6.9,4,13.1,11,13.7l0,0c6.4,0.6,12.2-4,13.1-10.4
																		c0.4-3,0.8-5.6,0.8-5.9c0,0,10.4,0.4,12.6-9.6c1-4.9,2.4-15.1,3.4-24.3c1.2-9.9-5.5-19.1-15.3-21l-1-0.2
																		C317.9,243.9,310.7,252.1,309.5,262.8z"/>
																</g>
															</g>
														</g>
													</g>
												</g>
											</g>
										</g>
									</g>
									<g id="XMLID_568_">
										<g id="XMLID_569_">
											<g id="XMLID_570_">
												<g id="XMLID_571_">
													<g id="XMLID_572_">
														<g id="XMLID_573_">
															<g id="XMLID_574_">
																<g id="XMLID_575_">
																	<path class="st14" d="M328.8,300.4c0,0-6.5-0.8-12.4-6.4c0,0,1.7,7.9,11.9,9L328.8,300.4z"/>
																</g>
															</g>
														</g>
													</g>
												</g>
											</g>
										</g>
									</g>
								</g>
							</g>
						</g>
						<g id="XMLID_576_">
							<g id="XMLID_577_">
								<g id="XMLID_578_">
									<g id="XMLID_579_">
										<g id="XMLID_580_">
											<g id="XMLID_581_">
												<g id="XMLID_582_">
													<g id="XMLID_583_">
														<g id="XMLID_584_">
															<g id="XMLID_585_">
																<g id="XMLID_586_">
																	<g id="XMLID_587_">
																		<g id="XMLID_588_">
																			<g id="XMLID_589_">
																				<path class="st8" d="M340.5,272.8c-0.1,0.8-0.9,1.3-1.7,1.2c-0.8-0.1-1.4-0.8-1.2-1.6c0.1-0.8,0.9-1.3,1.7-1.2
																					C340,271.3,340.6,272,340.5,272.8z"/>
																			</g>
																		</g>
																	</g>
																</g>
															</g>
														</g>
													</g>
												</g>
												<g id="XMLID_590_">
													<g id="XMLID_591_">
														<g id="XMLID_592_">
															<g id="XMLID_593_">
																<g id="XMLID_594_">
																	<g id="XMLID_595_">
																		<g id="XMLID_596_">
																			<g id="XMLID_597_">
																				<g id="XMLID_598_">
																					<path class="st8" d="M341.6,271.1c-0.2,0.2-1.1-0.9-2.7-1.2c-1.5-0.3-2.8,0.2-3,0c-0.1-0.1,0.2-0.4,0.8-0.7
																						c0.6-0.3,1.5-0.4,2.4-0.2c1,0.2,1.7,0.7,2.1,1.2C341.6,270.7,341.7,271.1,341.6,271.1z"/>
																				</g>
																			</g>
																		</g>
																	</g>
																</g>
															</g>
														</g>
													</g>
												</g>
											</g>
											<g id="XMLID_599_">
												<g id="XMLID_600_">
													<g id="XMLID_601_">
														<g id="XMLID_602_">
															<g id="XMLID_603_">
																<g id="XMLID_604_">
																	<g id="XMLID_605_">
																		<g id="XMLID_606_">
																			<g id="XMLID_607_">
																				<path class="st8" d="M325.2,270.3c-0.1,0.8-0.9,1.3-1.7,1.2c-0.8-0.1-1.4-0.8-1.2-1.6c0.1-0.8,0.9-1.3,1.7-1.2
																					C324.7,268.8,325.3,269.5,325.2,270.3z"/>
																			</g>
																		</g>
																	</g>
																</g>
															</g>
														</g>
													</g>
												</g>
												<g id="XMLID_608_">
													<g id="XMLID_609_">
														<g id="XMLID_610_">
															<g id="XMLID_611_">
																<g id="XMLID_612_">
																	<g id="XMLID_613_">
																		<g id="XMLID_614_">
																			<g id="XMLID_615_">
																				<g id="XMLID_616_">
																					<path class="st8" d="M326.3,268.4c-0.2,0.2-1.1-0.9-2.7-1.2c-1.5-0.3-2.8,0.2-3,0c-0.1-0.1,0.2-0.4,0.8-0.7
																						c0.6-0.3,1.5-0.4,2.4-0.2c1,0.2,1.7,0.7,2.1,1.2C326.3,267.9,326.4,268.3,326.3,268.4z"/>
																				</g>
																			</g>
																		</g>
																	</g>
																</g>
															</g>
														</g>
													</g>
												</g>
											</g>
											<g id="XMLID_617_">
												<g id="XMLID_618_">
													<g id="XMLID_619_">
														<g id="XMLID_620_">
															<g id="XMLID_621_">
																<g id="XMLID_622_">
																	<g id="XMLID_623_">
																		<g id="XMLID_624_">
																			<g id="XMLID_625_">
																				<path class="st8" d="M329.6,281c0-0.1,1-0.1,2.6,0c0.4,0,0.8,0,0.9-0.2c0.2-0.3,0.1-0.7,0-1.2
																					c-0.2-1-0.4-2.1-0.6-3.3c-0.8-4.6-1.2-8.4-1.1-8.4c0.2,0,1,3.7,1.7,8.3c0.2,1.1,0.4,2.2,0.5,3.3
																					c0.1,0.5,0.2,1-0.1,1.6c-0.2,0.3-0.5,0.4-0.8,0.4c-0.3,0-0.5,0-0.7,0C330.6,281.3,329.6,281.1,329.6,281z"/>
																			</g>
																		</g>
																	</g>
																</g>
															</g>
														</g>
													</g>
												</g>
											</g>
											<g id="XMLID_626_">
												<g id="XMLID_627_">
													<g id="XMLID_628_">
														<g id="XMLID_629_">
															<g id="XMLID_630_">
																<g id="XMLID_631_">
																	<g id="XMLID_632_">
																		<g id="XMLID_633_">
																			<g id="XMLID_634_">
																				<path class="st8" d="M324.9,281.2c0.3,0-0.1,1.7,1.1,3.2c1.2,1.5,3,1.7,3,1.9c0,0.1-0.5,0.2-1.2,0.1
																					c-0.7-0.1-1.8-0.6-2.5-1.5c-0.7-0.9-0.9-2-0.8-2.7C324.5,281.5,324.7,281.1,324.9,281.2z"/>
																			</g>
																		</g>
																	</g>
																</g>
															</g>
														</g>
													</g>
												</g>
											</g>
										</g>
									</g>
								</g>
								<g id="XMLID_635_">
									<g id="XMLID_636_">
										<g id="XMLID_637_">
											<g id="XMLID_638_">
												<g id="XMLID_639_">
													<g id="XMLID_640_">
														<g id="XMLID_641_">
															<g id="XMLID_642_">
																<path class="st8" d="M327.9,262.4c-0.2,0.4-1.7-0.1-3.6-0.3c-1.9-0.2-3.4,0.1-3.6-0.4c-0.1-0.2,0.3-0.5,0.9-0.8
																	c0.7-0.3,1.7-0.5,2.8-0.4c1.1,0.1,2.1,0.5,2.7,0.9C327.7,261.8,328,262.2,327.9,262.4z"/>
															</g>
														</g>
													</g>
												</g>
											</g>
										</g>
									</g>
								</g>
								<g id="XMLID_643_">
									<g id="XMLID_644_">
										<g id="XMLID_645_">
											<g id="XMLID_646_">
												<g id="XMLID_647_">
													<g id="XMLID_648_">
														<g id="XMLID_649_">
															<g id="XMLID_650_">
																<path class="st8" d="M341.9,266.5c-0.3,0.3-1.3-0.3-2.6-0.6c-1.3-0.3-2.4-0.2-2.6-0.7c-0.1-0.2,0.2-0.5,0.7-0.8
																	c0.5-0.2,1.4-0.4,2.3-0.2c0.9,0.2,1.6,0.7,2,1.1C342,266,342.1,266.4,341.9,266.5z"/>
															</g>
														</g>
													</g>
												</g>
											</g>
										</g>
									</g>
								</g>
							</g>
						</g>
					</g>
				</g>
			</g>
			<g id="XMLID_651_">
				<g id="XMLID_652_">
					<g id="XMLID_653_">
						<g id="XMLID_654_">
							<g id="XMLID_655_">
								<g id="XMLID_656_">
									<g id="XMLID_657_">
										<g id="XMLID_658_">
											<g id="XMLID_659_">
												<path class="st13" d="M308.8,270.4c-0.2-0.1-6.5-3.4-7.7,3.5c-1.2,6.9,6.1,6.7,6.1,6.5
													C307.3,280.2,308.8,270.4,308.8,270.4z"/>
											</g>
										</g>
									</g>
								</g>
							</g>
						</g>
					</g>
				</g>
				<g id="XMLID_660_">
					<g id="XMLID_661_">
						<g id="XMLID_662_">
							<g id="XMLID_663_">
								<g id="XMLID_664_">
									<g id="XMLID_665_">
										<g id="XMLID_666_">
											<g id="XMLID_667_">
												<g id="XMLID_668_">
													<path class="st14" d="M305.5,277.4c0,0-0.1,0.1-0.4,0.1c-0.2,0.1-0.6,0.1-0.9-0.1c-0.7-0.4-1.1-1.7-0.9-2.9
														c0.1-0.6,0.3-1.2,0.6-1.7c0.3-0.5,0.7-0.8,1.1-0.8c0.4,0,0.6,0.2,0.7,0.5c0.1,0.2,0,0.3,0,0.4c0,0,0.2-0.1,0.2-0.4
														c0-0.1-0.1-0.3-0.2-0.5c-0.1-0.2-0.4-0.3-0.6-0.3c-0.5-0.1-1.1,0.4-1.4,0.9c-0.4,0.5-0.6,1.2-0.7,1.9
														c-0.2,1.4,0.3,2.8,1.3,3.3c0.5,0.2,0.9,0.1,1.1,0C305.5,277.6,305.6,277.4,305.5,277.4z"/>
												</g>
											</g>
										</g>
									</g>
								</g>
							</g>
						</g>
					</g>
				</g>
			</g>
			<g id="XMLID_669_">
				<path id="XMLID_670_" class="st8" d="M347.3,265c-4.7,0.3-9.5-1.8-12.4-5.5c-2-2.6-3.3-5.9-6.2-7.5c-1.9-1.1-4.3-1.1-6.4-0.4
					c-2.1,0.7-4,2-5.6,3.4c0.9,5.5-1.5,11-3.9,16c-0.3,0.6-0.6,1.2-1.1,1.4c-0.9,0.5-2.1-0.3-2.6-1.2c-0.9-1.4-1-3.2-1-4.9
					c0.1-3.8,0.7-7.7,2.3-11.2c1.6-3.5,4-6.6,7.3-8.7c4-2.6,9.1-3.3,13.8-2.3c4.7,1,8.9,3.7,12.1,7.3c1.5,1.7,2.8,3.6,3.3,5.7"/>
			</g>
		</g>
	</g>
</g>
<g id="Plant">
	<g id="XMLID_671_">
		<g id="XMLID_672_">
			<g id="XMLID_673_">
				<g id="XMLID_674_">
					<g id="XMLID_675_">
						<path id="XMLID_676_" class="st8" d="M67.5,427.8c0,0,0.1-0.1,0.2-0.4c0.1-0.3,0.3-0.7,0.6-1.2c0.5-1.1,1.1-2.7,1.7-4.8
							c1.1-4.3,1.5-10.9-0.1-18.7c-0.8-3.9-2-8.1-3.5-12.5c-1.5-4.5-3.2-9.2-4.6-14.3c-1.4-5.1-2.5-10.6-2.3-16.4
							c0.2-5.8,1.9-11.6,3.8-17.4c1.9-5.8,3.8-11.4,4.4-17.1c0.7-5.7-0.6-11.2-3.1-15.8c-2.5-4.6-5.7-8.6-8-12.6
							c-2.4-4.1-3.9-8.3-4.8-12.2c-1.8-7.9-1.2-14.5-0.3-18.8c0.9-4.4,2-6.6,2-6.6c0,0,0,0.2-0.1,0.4c-0.1,0.3-0.2,0.7-0.4,1.3
							c-0.3,1.1-0.8,2.8-1.2,5c-0.8,4.4-1.3,10.9,0.5,18.7c0.9,3.9,2.4,8,4.8,12c2.4,4,5.5,8,8.1,12.6c2.6,4.6,3.9,10.4,3.2,16.1
							c-0.6,5.8-2.6,11.5-4.4,17.2c-1.9,5.8-3.6,11.5-3.8,17.2c-0.2,5.7,0.8,11.2,2.2,16.3c1.4,5.1,3.1,9.8,4.5,14.3
							c1.5,4.5,2.7,8.7,3.4,12.6c1.6,7.9,1.1,14.5,0,18.8c-0.6,2.2-1.3,3.8-1.8,4.8c-0.3,0.5-0.5,0.9-0.6,1.2
							C67.5,427.7,67.5,427.9,67.5,427.8z"/>
					</g>
				</g>
			</g>
			<g id="XMLID_677_">
				<g id="XMLID_678_">
					<g id="XMLID_679_">
						<path class="st9" d="M59.7,300.6c0,0-4.8-15.3,3.8-24.3c0.3-0.3,0.8-0.2,0.9,0.3C64.9,279.1,65.5,286.8,59.7,300.6z"/>
					</g>
				</g>
				<g id="XMLID_680_">
					<g id="XMLID_681_">
						<g id="XMLID_682_">
							<path id="XMLID_683_" class="st8" d="M62.6,281.4c0.1,0-0.1,1.1-0.3,2.8c-0.3,1.9-0.7,4.2-1.1,6.8c-0.4,2.5-0.8,4.8-1.1,6.7
								c-0.3,1.7-0.4,2.8-0.5,2.8c-0.1,0-0.1-1.1,0.1-2.8c0.2-1.7,0.5-4.2,0.9-6.8c0.4-2.6,0.9-5,1.3-6.7
								C62.3,282.4,62.5,281.4,62.6,281.4z"/>
						</g>
					</g>
				</g>
			</g>
			<g id="XMLID_684_">
				<g id="XMLID_685_">
					<g id="XMLID_686_">
						<path class="st9" d="M65.4,336.6c0,0,2.9-15.8,14.7-19.7c0.4-0.1,0.8,0.2,0.7,0.7C80,320.1,76.9,327.2,65.4,336.6z"/>
					</g>
				</g>
				<g id="XMLID_687_">
					<g id="XMLID_688_">
						<g id="XMLID_689_">
							<path id="XMLID_690_" class="st8" d="M76.9,321c0.1,0.1-0.6,0.9-1.6,2.3c-1.2,1.6-2.6,3.4-4.1,5.5c-1.5,2-2.9,3.9-4.1,5.5
								c-1,1.4-1.7,2.3-1.8,2.2c-0.1,0,0.5-1,1.4-2.5c1-1.5,2.4-3.5,4-5.6c1.6-2.1,3.1-4,4.3-5.4C76.1,321.8,76.8,321,76.9,321z"/>
						</g>
					</g>
				</g>
			</g>
			<g id="XMLID_691_">
				<g id="XMLID_692_">
					<g id="XMLID_693_">
						<path class="st9" d="M62.2,376.2c0,0-1.8-15.9,8.4-23.1c0.4-0.3,0.8,0,0.8,0.4C71.4,356.1,70.5,363.8,62.2,376.2z"/>
					</g>
				</g>
				<g id="XMLID_694_">
					<g id="XMLID_695_">
						<g id="XMLID_696_">
							<path id="XMLID_697_" class="st8" d="M68.7,357.9c0.1,0-0.3,1.1-0.9,2.7c-0.7,1.8-1.5,4-2.4,6.4c-0.9,2.4-1.7,4.6-2.3,6.4
								c-0.6,1.6-0.9,2.7-1,2.6c-0.1,0,0.1-1.1,0.6-2.8c0.5-1.7,1.3-4,2.2-6.5c0.9-2.5,1.8-4.8,2.5-6.4
								C68.1,358.9,68.6,357.9,68.7,357.9z"/>
						</g>
					</g>
				</g>
			</g>
			<g id="XMLID_698_">
				<g id="XMLID_699_">
					<g id="XMLID_700_">
						<path class="st9" d="M71.1,416c0,0-1.2-16,9.2-22.8c0.4-0.2,0.8,0,0.8,0.5C80.9,396.2,79.8,403.9,71.1,416z"/>
					</g>
				</g>
				<g id="XMLID_701_">
					<g id="XMLID_702_">
						<g id="XMLID_703_">
							<path id="XMLID_704_" class="st8" d="M78.2,398c0.1,0-0.3,1.1-1,2.7c-0.7,1.8-1.6,4-2.6,6.3c-1,2.4-1.8,4.5-2.6,6.3
								c-0.6,1.6-1,2.6-1.1,2.6c-0.1,0,0.2-1.1,0.7-2.8c0.5-1.7,1.4-3.9,2.4-6.4c1-2.5,2-4.7,2.8-6.3
								C77.6,398.9,78.1,397.9,78.2,398z"/>
						</g>
					</g>
				</g>
			</g>
			<g id="XMLID_705_">
				<g id="XMLID_706_">
					<g id="XMLID_707_">
						<path class="st9" d="M52.9,287.1c0,0-14.2-7.4-14.5-19.8c0-0.4,0.5-0.7,0.8-0.5C41.3,268.3,47.2,273.3,52.9,287.1z"/>
					</g>
				</g>
				<g id="XMLID_708_">
					<g id="XMLID_709_">
						<g id="XMLID_710_">
							<path id="XMLID_711_" class="st8" d="M41.3,271.5c0.1,0,0.7,0.8,1.8,2.2c1.2,1.6,2.5,3.5,4,5.5c1.5,2.1,2.9,3.9,4,5.5
								c1,1.4,1.7,2.3,1.6,2.3c-0.1,0.1-0.8-0.7-2-2.1c-1.1-1.3-2.6-3.3-4.2-5.4c-1.6-2.2-2.9-4.2-3.9-5.7
								C41.8,272.5,41.3,271.6,41.3,271.5z"/>
						</g>
					</g>
				</g>
			</g>
			<g id="XMLID_712_">
				<g id="XMLID_713_">
					<g id="XMLID_714_">
						<path class="st9" d="M68.1,320c0,0-14.6-6.5-15.7-18.9c0-0.4,0.4-0.7,0.8-0.5C55.5,301.9,61.6,306.6,68.1,320z"/>
					</g>
				</g>
				<g id="XMLID_715_">
					<g id="XMLID_716_">
						<g id="XMLID_717_">
							<path id="XMLID_718_" class="st8" d="M55.7,305.1c0.1-0.1,0.8,0.8,1.9,2.1c1.2,1.5,2.7,3.3,4.3,5.3c1.6,2,3.1,3.8,4.3,5.3
								c1.1,1.3,1.8,2.2,1.8,2.2c-0.1,0.1-0.9-0.7-2.1-1.9c-1.2-1.3-2.8-3.1-4.5-5.2c-1.7-2.1-3.2-4-4.2-5.4
								C56.2,306.1,55.6,305.2,55.7,305.1z"/>
						</g>
					</g>
				</g>
			</g>
			<g id="XMLID_719_">
				<g id="XMLID_720_">
					<g id="XMLID_721_">
						<path class="st9" d="M59.7,356.6c0,0-10.1-12.5-5.3-24c0.2-0.4,0.7-0.5,0.9-0.1C56.7,334.8,60,341.7,59.7,356.6z"/>
					</g>
				</g>
				<g id="XMLID_722_">
					<g id="XMLID_723_">
						<g id="XMLID_724_">
							<path id="XMLID_725_" class="st8" d="M55.4,337.7c0.1,0,0.3,1,0.7,2.7c0.4,1.9,0.9,4.2,1.5,6.7c0.5,2.5,1,4.8,1.5,6.7
								c0.4,1.7,0.6,2.8,0.5,2.8c-0.1,0-0.5-1-1-2.7c-0.5-1.7-1.1-4-1.6-6.7c-0.6-2.6-1-5-1.3-6.7C55.4,338.8,55.3,337.8,55.4,337.7
								z"/>
						</g>
					</g>
				</g>
			</g>
			<g id="XMLID_726_">
				<g id="XMLID_727_">
					<g id="XMLID_728_">
						<path class="st9" d="M69.7,399.8c0,0-14.5-6.8-15.3-19.2c0-0.4,0.4-0.7,0.8-0.5C57.3,381.5,63.4,386.2,69.7,399.8z"/>
					</g>
				</g>
				<g id="XMLID_729_">
					<g id="XMLID_730_">
						<g id="XMLID_731_">
							<path id="XMLID_732_" class="st8" d="M57.5,384.7c0.1,0,0.8,0.8,1.9,2.1c1.2,1.5,2.7,3.4,4.2,5.4c1.6,2,3,3.8,4.3,5.3
								c1.1,1.4,1.8,2.2,1.7,2.3c-0.1,0.1-0.9-0.7-2-2c-1.2-1.3-2.8-3.1-4.4-5.2c-1.7-2.1-3.1-4-4.1-5.5
								C58,385.7,57.4,384.8,57.5,384.7z"/>
						</g>
					</g>
				</g>
			</g>
			<g id="XMLID_733_">
				<g id="XMLID_734_">
					<g id="XMLID_735_">
						<g id="XMLID_736_">
							<path id="XMLID_737_" class="st8" d="M98.6,336.7c0,0,0,0.1,0,0.4c0,0.3,0,0.6,0,1c0,1-0.1,2.3-0.2,3.9
								c-0.2,3.4-0.4,8.2-0.8,13.9l0,0l0,0c-1,5.8-4,12.2-8,18.5c-2.9,4.6-6,8.8-8.6,12.7c-2.6,3.9-4.9,7.5-6.4,10.7
								c-1.6,3.2-2.5,5.9-3,7.8c-0.3,1-0.4,1.7-0.6,2.2c-0.1,0.5-0.2,0.8-0.2,0.8c0,0,0-0.3,0.1-0.8c0.1-0.5,0.2-1.3,0.5-2.3
								c0.5-1.9,1.3-4.7,2.9-7.9c1.5-3.2,3.7-6.9,6.4-10.8c2.6-3.9,5.7-8.1,8.5-12.7c3.9-6.2,6.9-12.5,8-18.3l0,0
								c0.4-5.7,0.7-10.5,1-13.9c0.1-1.6,0.2-2.9,0.3-3.9c0-0.4,0.1-0.7,0.1-1C98.6,336.9,98.6,336.7,98.6,336.7z"/>
						</g>
					</g>
				</g>
				<g id="XMLID_738_">
					<g id="XMLID_739_">
						<g id="XMLID_740_">
							<path class="st9" d="M90,373.2c0,0,6.2-14.8-1.6-24.5c-0.3-0.3-0.8-0.2-0.9,0.2C86.7,351.3,85.5,359,90,373.2z"/>
						</g>
					</g>
					<g id="XMLID_741_">
						<g id="XMLID_742_">
							<g id="XMLID_743_">
								<path id="XMLID_744_" class="st8" d="M88.8,353.9c0.1,0,0.3,1.1,0.5,2.8c0.2,1.7,0.5,4.1,0.7,6.8c0.2,2.7,0.3,5.1,0.3,6.8
									c0,1.8-0.1,2.8-0.2,2.8c-0.1,0-0.1-1.1-0.3-2.8c-0.1-2-0.3-4.3-0.5-6.8c-0.2-2.5-0.3-4.9-0.5-6.8
									C88.8,354.9,88.7,353.9,88.8,353.9z"/>
							</g>
						</g>
					</g>
				</g>
				<g id="XMLID_747_">
					<g id="XMLID_748_">
						<g id="XMLID_749_">
							<path class="st9" d="M70.9,408.9c0,0,4.9-15.3-3.6-24.3c-0.3-0.3-0.8-0.2-0.9,0.3C65.9,387.4,65.3,395.1,70.9,408.9z"/>
						</g>
					</g>
					<g id="XMLID_750_">
						<g id="XMLID_751_">
							<g id="XMLID_752_">
								<path id="XMLID_753_" class="st8" d="M68.2,389.7c0.1,0,0.4,1,0.7,2.8c0.4,1.7,0.8,4.1,1.2,6.7c0.4,2.6,0.7,5.1,0.8,6.8
									c0.1,1.8,0.1,2.8,0.1,2.8c-0.1,0-0.2-1.1-0.5-2.8c-0.3-1.9-0.6-4.2-1-6.8c-0.4-2.5-0.7-4.8-1-6.8
									C68.3,390.8,68.1,389.7,68.2,389.7z"/>
							</g>
						</g>
					</g>
				</g>
				<g id="XMLID_756_">
					<g id="XMLID_757_">
						<g id="XMLID_758_">
							<path class="st9" d="M97.8,355.1c0,0,13.1-9.2,11.8-21.5c0-0.4-0.6-0.6-0.9-0.3C106.8,334.9,101.7,340.7,97.8,355.1z"/>
						</g>
					</g>
					<g id="XMLID_761_">
						<g id="XMLID_762_">
							<g id="XMLID_763_">
								<path id="XMLID_764_" class="st8" d="M107.2,338.2c0.1,0-0.3,1-1.1,2.6c-0.7,1.6-1.8,3.7-3.1,6.1c-1.3,2.4-2.5,4.4-3.4,5.9
									c-0.9,1.5-1.6,2.3-1.7,2.3c-0.1,0,0.5-1,1.3-2.5c0.9-1.7,2.1-3.8,3.3-6c1.2-2.2,2.3-4.3,3.3-6
									C106.6,339.1,107.1,338.1,107.2,338.2z"/>
							</g>
						</g>
					</g>
				</g>
				<g id="XMLID_765_">
					<g id="XMLID_766_">
						<g id="XMLID_767_">
							<path class="st9" d="M76.2,393.8c0,0,15.8-2.5,20.1-14.1c0.1-0.4-0.2-0.8-0.6-0.7C93.2,379.6,86,382.5,76.2,393.8z"/>
						</g>
					</g>
					<g id="XMLID_770_">
						<g id="XMLID_771_">
							<g id="XMLID_772_">
								<path id="XMLID_773_" class="st8" d="M92.1,382.7c0.1,0.1-0.8,0.8-2.1,1.9c-1.4,1.1-3.3,2.6-5.5,4.1
									c-2.2,1.6-4.2,2.9-5.7,3.8c-1.5,0.9-2.5,1.4-2.5,1.3c0-0.1,0.8-0.7,2.3-1.7c1.6-1.1,3.5-2.5,5.6-3.9c2.1-1.5,4-2.8,5.6-4
									C91.2,383.2,92.1,382.7,92.1,382.7z"/>
							</g>
						</g>
					</g>
				</g>
			</g>
		</g>
		<g id="XMLID_774_">
			<g id="XMLID_775_">
				<polygon id="XMLID_776_" class="st12" points="61.1,422.9 56.5,454 85.3,454 81.5,422.9 				"/>
			</g>
		</g>
		<g id="XMLID_777_">
			<g id="XMLID_778_">
				<g id="XMLID_779_">
					<ellipse id="XMLID_780_" class="st8" cx="71.1" cy="432.6" rx="11.6" ry="0.3"/>
				</g>
			</g>
		</g>
		<g id="XMLID_781_">
			<g id="XMLID_782_">
				<g id="XMLID_783_">
					<ellipse id="XMLID_784_" class="st8" cx="71.3" cy="435" rx="12" ry="0.3"/>
				</g>
			</g>
		</g>
	</g>
</g>
</svg>
